<?xml version="1.0" encoding="UTF-8"?>
<svg version="1.1" xmlns="http://www.w3.org/2000/svg" width="1254" height="1254">
<path d="M0 0 C4.05776367 0.00420843 8.11550987 -0.00325302 12.17326914 -0.00915251 C19.27055049 -0.01787902 26.36780297 -0.01923931 33.46508835 -0.01564924 C44.01961647 -0.01032455 54.57411683 -0.01645527 65.12864194 -0.02473217 C85.07948241 -0.03994839 105.03031016 -0.04167966 124.98115521 -0.03920914 C140.39146837 -0.03737427 155.80177737 -0.03914015 171.21209 -0.04343358 C173.42852298 -0.04403599 175.64495597 -0.04463719 177.86138896 -0.04523719 C181.20162885 -0.04614447 184.54186874 -0.04705314 187.88210863 -0.04796954 C218.92654513 -0.0563956 249.97098007 -0.06073718 281.01541756 -0.05656282 C282.18501508 -0.05640644 283.35461259 -0.05625007 284.55965246 -0.05608895 C290.48720661 -0.05528321 296.41476075 -0.05443743 302.3423149 -0.05357565 C303.51947814 -0.05340456 304.69664138 -0.05323347 305.90947624 -0.0530572 C308.28998488 -0.05271054 310.67049352 -0.05236201 313.05100216 -0.05201161 C350.08438917 -0.04665548 387.11775238 -0.0545832 424.15113495 -0.07304517 C465.7901219 -0.09377899 507.42909409 -0.10448522 549.06808649 -0.10046969 C553.51126995 -0.10007436 557.95445341 -0.09971281 562.39763687 -0.0993723 C563.4916032 -0.09928157 564.58556952 -0.09919084 565.71268634 -0.09909736 C582.19959756 -0.09793326 598.68649385 -0.10456546 615.17340134 -0.11518422 C633.93305482 -0.12725473 652.69267547 -0.12877392 671.45232945 -0.11639406 C681.93867207 -0.1097829 692.42493613 -0.11135613 702.9112724 -0.12498257 C709.93117106 -0.13326494 716.95101126 -0.13048068 723.97090523 -0.1190073 C727.96039121 -0.11278816 731.94972461 -0.11105216 735.93920141 -0.12287064 C757.98673867 -0.18378309 779.74534852 0.72768266 801.26881073 5.95063647 C802.33986054 6.20627368 803.41091034 6.46191088 804.5144162 6.72529467 C842.08731841 16.01468943 876.91448557 33.98261221 906.20631073 59.26313647 C907.35873261 60.24926928 907.35873261 60.24926928 908.53443573 61.25532397 C920.3104927 71.58861899 931.77185263 82.7329968 941.20631073 95.26313647 C941.67037323 95.86722338 942.13443573 96.4713103 942.61256073 97.09370288 C979.29738991 145.0436757 994.75454347 200.05260584 994.59171339 259.74423648 C994.58400103 263.81412249 994.59392287 267.88397585 994.60144339 271.95385703 C994.61220899 279.06464335 994.61199293 286.17536118 994.60430191 293.28615054 C994.59289599 303.86061549 994.59878585 314.43502328 994.60792683 325.00948792 C994.6236816 343.90178905 994.62237185 362.79405964 994.6136901 381.68636363 C994.60613006 398.21978051 994.60417955 414.75318623 994.60775803 431.28660449 C994.60798718 432.38521764 994.60821634 433.4838308 994.60845244 434.61573526 C994.60938652 439.07586656 994.61034173 443.53599784 994.61133173 447.99612912 C994.62049949 489.79729979 994.61220301 531.59845106 994.59604104 573.39961872 C994.58180526 610.50094492 994.58307918 647.60224023 994.59742401 684.70356616 C994.61350353 726.43047775 994.6198492 768.15737222 994.61058722 809.88428649 C994.60962514 814.33608047 994.60868661 818.78787446 994.60775803 823.23966845 C994.60740218 824.88376977 994.60740218 824.88376977 994.60703914 826.56108525 C994.60363317 843.08019208 994.60760551 859.59928649 994.61519669 876.1183916 C994.62378926 894.90979496 994.62159848 913.70116314 994.60535446 932.49256214 C994.59657251 942.99691272 994.59593149 953.50118702 994.60729298 964.00553556 C994.61405561 971.03598783 994.60976986 978.06637938 994.59677867 985.09682271 C994.58969276 989.09306528 994.58709547 993.08915715 994.59799662 997.08539458 C994.65237375 1018.59023492 993.84926469 1039.74361427 988.51881073 1060.70063647 C988.26099823 1061.73027514 988.00318573 1062.75991381 987.73756073 1063.82075366 C978.64853709 1099.1537946 963.01786782 1131.71691393 940.20631073 1160.26313647 C939.74176483 1160.84482592 939.27721894 1161.42651538 938.79859589 1162.02583178 C927.19033907 1176.38782735 914.00092296 1190.17240877 899.20631073 1201.26313647 C898.64379608 1201.69142749 898.08128144 1202.1197185 897.50172089 1202.56098803 C889.04225593 1208.99152952 880.4070493 1214.92944456 871.20631073 1220.26313647 C870.51005585 1220.6753142 869.81380097 1221.08749194 869.09644745 1221.51215991 C842.5227155 1237.16933187 812.74882263 1247.79901575 782.20631073 1252.26313647 C781.10125329 1252.43104872 779.99619585 1252.59896097 778.85765181 1252.77196147 C764.10586095 1254.80614257 749.26979085 1254.54985347 734.41262146 1254.52627294 C730.3548578 1254.52206451 726.2971116 1254.52952596 722.23935233 1254.53542545 C715.14207098 1254.54415196 708.04481849 1254.54551225 700.94753311 1254.54192218 C690.39300499 1254.53659749 679.83850463 1254.54272821 669.28397952 1254.55100511 C649.33313905 1254.56622133 629.38231131 1254.5679526 609.43146625 1254.56548208 C594.0211531 1254.56364721 578.6108441 1254.56541309 563.20053147 1254.56970652 C560.98409848 1254.57030893 558.76766549 1254.57091013 556.55123251 1254.57151013 C553.21099262 1254.57241741 549.87075273 1254.57332608 546.53051284 1254.57424248 C515.48607633 1254.58266854 484.44164139 1254.58701012 453.39720391 1254.58283576 C452.22760639 1254.58267938 451.05800887 1254.58252301 449.85296901 1254.58236189 C443.92541486 1254.58155615 437.99786071 1254.58071037 432.07030657 1254.57984859 C430.89314333 1254.5796775 429.71598008 1254.57950641 428.50314523 1254.57933014 C426.12263659 1254.57898348 423.74212795 1254.57863495 421.36161931 1254.57828455 C384.32823229 1254.57292842 347.29486909 1254.58085614 310.26148651 1254.59931811 C268.62249957 1254.62005193 226.98352737 1254.63075816 185.34453498 1254.62674262 C180.90135152 1254.6263473 176.45816806 1254.62598575 172.01498459 1254.62564524 C170.92101827 1254.62555451 169.82705195 1254.62546378 168.69993513 1254.6253703 C152.2130239 1254.6242062 135.72612762 1254.6308384 119.23922013 1254.64145716 C100.47956665 1254.65352767 81.71994599 1254.65504686 62.96029201 1254.642667 C52.47394939 1254.63605584 41.98768534 1254.63762907 31.50134906 1254.65125551 C24.4814504 1254.65953788 17.46161021 1254.65675362 10.44171624 1254.64528024 C6.45223026 1254.6390611 2.46289685 1254.6373251 -1.52657995 1254.64914358 C-75.15251664 1254.85215196 -138.62145792 1229.07408268 -190.98118927 1177.26313647 C-196.66499964 1171.5654894 -201.90492481 1165.66550415 -206.79368927 1159.26313647 C-207.20651153 1158.73204272 -207.6193338 1158.20094897 -208.04466583 1157.65376147 C-244.96043763 1109.99935287 -260.34133348 1054.25792205 -260.17909193 994.78203646 C-260.17137957 990.71215045 -260.18130141 986.64229709 -260.18882193 982.57241591 C-260.19958752 975.46162959 -260.19937147 968.35091176 -260.19168045 961.2401224 C-260.18027453 950.66565745 -260.18616439 940.09124966 -260.19530537 929.51678502 C-260.21106014 910.62448389 -260.20975039 891.7322133 -260.20106863 872.83990931 C-260.1935086 856.30649243 -260.19155808 839.77308671 -260.19513656 823.23966845 C-260.19536572 822.1410553 -260.19559487 821.04244214 -260.19583097 819.91053768 C-260.19676506 815.45040638 -260.19772027 810.9902751 -260.19871027 806.53014382 C-260.20787802 764.72897315 -260.19958155 722.92782188 -260.18341957 681.12665422 C-260.16918379 644.02532802 -260.17045772 606.92403271 -260.18480255 569.82270678 C-260.20088206 528.09579519 -260.20722773 486.36890072 -260.19796576 444.64198645 C-260.19700367 440.19019247 -260.19606515 435.73839848 -260.19513656 431.28660449 C-260.19489933 430.19053694 -260.1946621 429.0944694 -260.19441768 427.96518768 C-260.19101171 411.44608086 -260.19498405 394.92698645 -260.20257522 378.40788134 C-260.21116779 359.61647798 -260.20897701 340.8251098 -260.19273299 322.0337108 C-260.18395105 311.52936022 -260.18331003 301.02508592 -260.19467151 290.52073738 C-260.20143415 283.49028511 -260.1971484 276.45989356 -260.18415721 269.42945023 C-260.17707129 265.43320766 -260.174474 261.43711579 -260.18537516 257.44087835 C-260.23975763 235.93392583 -259.43052075 214.78564913 -254.10618927 193.82563647 C-253.85345245 192.80542407 -253.60071563 191.78521167 -253.34032013 190.73408374 C-242.16713975 146.96490434 -220.95606693 108.98219165 -189.79368927 76.26313647 C-189.22344024 75.66420581 -188.65319122 75.06527514 -188.06566192 74.44819506 C-179.53605728 65.55601911 -170.71798255 57.56205912 -160.79368927 50.26313647 C-160.22295685 49.83694018 -159.65222442 49.41074389 -159.06419708 48.97163256 C-150.321304 42.45514458 -141.25417686 36.67734626 -131.79368927 31.26313647 C-130.67091583 30.60700366 -129.54814239 29.95087084 -128.39134552 29.27485522 C-107.07495831 17.30986398 -83.48747992 9.63164658 -59.66868927 4.51313647 C-58.75208526 4.31421801 -57.83548126 4.11529956 -56.89110138 3.91035327 C-37.99726701 0.06023281 -19.18949675 -0.03045658 0 0 Z " fill="#15161A" transform="translate(259.79368926770985,-0.26313646975904703)"/>
<path d="M0 0 C0 25.08 0 50.16 0 76 C-12.85514761 76 -22.71861385 71.13862737 -31.75 62.3125 C-37.23614372 55.18981171 -38.6838316 46.75684352 -38 38 C-38.65134925 39.56020867 -39.29582964 41.12328579 -39.9375 42.6875 C-40.29714844 43.55761719 -40.65679687 44.42773438 -41.02734375 45.32421875 C-44.57394892 55.08094381 -42.99694104 64.40096637 -38.78125 73.68359375 C-34.98325957 80.61492628 -29.65637546 86.44787485 -22 89 C-22 89.66 -22 90.32 -22 91 C-5.58892428 96.9676639 9.32922686 98.5866801 26.6953125 98.33984375 C28.88647644 98.32308451 31.07764948 98.30748201 33.26882935 98.29295349 C57.01174788 98.09718218 80.74692539 97.41094122 104.47790527 96.66760254 C109.07454001 96.52538749 113.67137551 96.39040083 118.26823235 96.25558567 C123.86380151 96.09114344 129.45924883 95.92272147 135.0546875 95.75390625 C136.58849375 95.70807498 136.58849375 95.70807498 138.15328598 95.66131783 C149.14343768 95.33008304 160.12299855 94.9223898 171.10328674 94.34866238 C177.87682361 93.9966071 184.64944132 93.75428799 191.4296875 93.5703125 C193.92106571 93.49820245 196.41243919 93.42592901 198.90380859 93.35351562 C200.19792664 93.31653564 201.49204468 93.27955566 202.82537842 93.24145508 C231.82746287 92.41059188 260.81802348 91.34844283 289.80936718 90.20743561 C293.89503073 90.04673169 297.98071122 89.88646414 302.06640625 89.7265625 C302.86575151 89.69526245 303.66509678 89.6639624 304.48866463 89.63171387 C315.81305998 89.1893857 327.13814279 88.77713753 338.46484375 88.3984375 C339.14991249 88.37550377 339.83498123 88.35257004 340.54080963 88.32894135 C347.5255578 88.09565307 354.51048516 87.86836083 361.49560547 87.64648438 C370.63045227 87.35193092 379.7544637 87.05635069 388.875 86.45703125 C397.31126646 85.9101662 405.7358897 85.81386493 414.18823242 85.81469727 C416.72395625 85.81246795 419.25927196 85.79409047 421.79492188 85.77539062 C423.42968604 85.77246278 425.06445223 85.77047392 426.69921875 85.76953125 C427.44612473 85.76234573 428.1930307 85.75516022 428.96257019 85.74775696 C438.09917485 85.78760297 444.90369621 89.39135143 451.625 95.3125 C460.1072073 104.91078721 464.14055412 113.25291569 464.11352539 126.28076172 C464.11344986 127.5015744 464.11337433 128.72238708 464.11329651 129.98019409 C464.10813522 131.28352692 464.10297394 132.58685974 464.09765625 133.9296875 C464.09578901 135.28874662 464.09436655 136.64780642 464.09336853 138.00686646 C464.08956748 141.56768686 464.07975802 145.12846587 464.06866455 148.68927002 C464.05839835 152.32929932 464.05385979 155.96933537 464.04882812 159.609375 C464.03813339 166.73960017 464.02108622 173.86979737 464 181 C449.50568924 182.31476134 435.04111508 183.33270388 420.49816895 183.89056396 C363.84677516 184.77742621 363.84677516 184.77742621 317.1875 213.8125 C299.95576723 234.04242803 294.9731889 256.02139788 297 282 C297.92097868 287.64060682 299.75812301 292.74519585 302 298 C302.48339844 299.27423828 302.48339844 299.27423828 302.9765625 300.57421875 C307.20699545 311.11351475 314.11445218 319.95297339 322 328 C322.65226562 328.68835938 323.30453125 329.37671875 323.9765625 330.0859375 C339.70046892 345.44558354 359.86389517 349.54493908 381.04272461 349.4140625 C394.58108343 349.19405725 408.09448279 348.19235291 421.59082031 347.15600586 C435.71763289 346.07921652 449.84023466 345.46470395 464 345 C464.09327568 354.14577514 464.16405363 363.2913829 464.20724869 372.43753242 C464.22799533 376.68590394 464.25607179 380.93394658 464.30175781 385.18212891 C464.34568306 389.29298949 464.36923386 393.40353668 464.37950897 397.51461411 C464.38681766 399.07168374 464.40108585 400.62873906 464.42292023 402.18567276 C464.60867443 415.99879459 463.14630151 428.92699575 454 440 C453.49855469 440.62390625 452.99710938 441.2478125 452.48046875 441.890625 C443.7711632 451.63826625 430.99665201 454.98274757 418.40698242 455.74609375 C417.17816849 455.82949509 417.17816849 455.82949509 415.92453003 455.9145813 C413.23523976 456.09555295 410.5454054 456.26643057 407.85546875 456.4375 C405.96180884 456.56363423 404.06819882 456.69051937 402.17463684 456.81811523 C397.19290715 457.15226866 392.21068698 457.478375 387.22827148 457.80212402 C379.29530837 458.31835579 371.3630057 458.84440026 363.43099403 459.37503052 C360.69152947 459.55679 357.95178247 459.73364475 355.21195984 459.90991211 C345.97933406 460.51516924 336.78954518 461.28884059 327.59192276 462.2966795 C321.25532588 462.98849383 314.92077612 463.49778909 308.55859375 463.89453125 C306.27278582 464.04442388 303.98697856 464.19432669 301.70117188 464.34423828 C300.51966553 464.42031311 299.33815918 464.49638794 298.12084961 464.57476807 C291.66193151 464.99164163 285.203935 465.42227161 278.74609375 465.85546875 C278.0724818 465.90059097 277.39886986 465.9457132 276.70484543 465.99220276 C260.12923939 467.10523381 243.56437523 468.35713534 227 469.625 C225.97242144 469.70364477 225.97242144 469.70364477 224.92408371 469.78387833 C219.01362564 470.23641383 213.10319081 470.68924687 207.19300842 471.14537048 C200.90044607 471.62994081 194.60736738 472.10389154 188.3125 472.55761719 C187.08144531 472.64675385 185.85039063 472.7358905 184.58203125 472.82772827 C182.26708024 472.99460055 179.95198388 473.15947398 177.63671875 473.32192993 C173.56935005 473.61551462 169.55162323 473.9185515 165.51611328 474.5144043 C160.27610664 475.2380797 155.02310532 475.42949595 149.7421875 475.68359375 C147.31769852 475.80775117 144.89321966 475.93210644 142.46875 476.05664062 C138.6775306 476.24781717 134.88623478 476.43695074 131.09472656 476.62231445 C127.41439146 476.80354671 123.7345529 476.99309208 120.0546875 477.18359375 C118.94068573 477.23575546 117.82668396 477.28791718 116.67892456 477.34165955 C111.2884571 477.6252159 106.03069165 478.09694246 100.70214844 478.97045898 C93.06809613 480.21738683 85.41924856 480.76272207 77.7109375 481.2890625 C76.1575072 481.39810076 74.60409158 481.50734835 73.0506897 481.61679077 C69.80520185 481.84402615 66.55945274 482.06696461 63.31347656 482.28710938 C60.04571001 482.50919843 56.7785375 482.73801527 53.51171875 482.97363281 C-26.33321255 488.72876239 -26.33321255 488.72876239 -54.44921875 465.20703125 C-69.59878176 451.90917843 -81.06273337 436.00272064 -85 416 C-85.33 415.34 -85.66 414.68 -86 414 C-86.09733612 412.12139833 -86.12919204 410.23928604 -86.13142776 408.35816574 C-86.13526891 407.15059577 -86.13911005 405.94302579 -86.1430676 404.69886279 C-86.14228725 403.34666612 -86.14140845 401.9944695 -86.14044189 400.64227295 C-86.14302413 399.21509319 -86.14603689 397.78791416 -86.1494453 396.36073613 C-86.15753612 392.42453212 -86.15930603 388.48834633 -86.16004276 384.55213499 C-86.16188986 380.3119123 -86.16943576 376.07169914 -86.17617798 371.83148193 C-86.18977963 362.54996592 -86.19578971 353.26845422 -86.20018864 343.98692989 C-86.20294965 338.18996781 -86.20718691 332.3930074 -86.21169281 326.59604645 C-86.22389106 310.5441689 -86.23418719 294.4922927 -86.2375679 278.44041061 C-86.23789725 276.89820571 -86.23789725 276.89820571 -86.23823325 275.32484515 C-86.23845153 274.29423588 -86.23866981 273.26362661 -86.2388947 272.20178676 C-86.23933817 270.11336565 -86.23978473 268.02494454 -86.24023438 265.93652344 C-86.2404558 264.90059285 -86.24067723 263.86466225 -86.24090537 262.79733983 C-86.24484856 246.03273512 -86.26228543 229.26817402 -86.2855939 212.50358614 C-86.30933465 195.28884458 -86.3217711 178.07412485 -86.32293582 160.85936666 C-86.32385139 151.19531079 -86.32957339 141.53131163 -86.34775543 131.86727142 C-86.36319363 123.63246197 -86.36825524 115.39772672 -86.36001733 107.16290554 C-86.3561231 102.96474893 -86.35697986 98.76674155 -86.37107468 94.56860352 C-86.38388858 90.71651708 -86.38255109 86.86469085 -86.37048396 83.01260439 C-86.36762679 80.97707843 -86.3794061 78.94154765 -86.39190602 76.90605807 C-86.28691587 57.16835172 -80.13173911 39.30062431 -66.375 24.875 C-47.52517975 6.8559469 -25.72545222 0 0 0 Z " fill="#2986FC" transform="translate(401,457)"/>
<path d="M0 0 C9.96454311 8.01142032 11.20542128 21.53515955 14 33.3125 C14.51705424 35.47554258 15.03523157 37.63831366 15.55360413 39.80104065 C15.8912952 41.21096745 16.22824686 42.62107157 16.56443787 44.03135681 C17.56336395 48.21460186 18.59879988 52.38673091 19.66015625 56.5546875 C20.76873646 60.95944121 21.67001295 65.3362867 22.4375 69.8125 C23.57646235 76.16862035 25.10871222 82.33219586 26.83203125 88.55859375 C28.68892702 95.44424319 30.19842598 102.41778397 31.78173828 109.37011719 C33.17595875 115.47636024 34.62042393 121.56096291 36.1875 127.625 C37.63012984 133.28909583 38.7673416 138.9554289 39.78369141 144.71020508 C40.96084663 151.1798313 42.58798703 157.51816569 44.22314453 163.88476562 C45.75324387 169.88303688 47.05918857 175.87770475 48 182 C47.40589551 174.76130582 46.60748097 167.55850731 45.73095703 160.34985352 C45.11538528 155.20919896 44.65514799 150.07545663 44.34375 144.90625 C44.03323832 141.82685904 44.03323832 141.82685904 43.1171875 138.18359375 C41.47967218 131.05966449 40.61122123 123.79889708 39.625 116.5625 C39.46458725 115.39737381 39.46458725 115.39737381 39.30093384 114.20870972 C37.64599174 102.17403707 36.11574018 90.12610516 34.6875 78.0625 C34.60050842 77.33362579 34.51351685 76.60475159 34.42388916 75.85379028 C34.17870566 73.78964989 33.938015 71.7250443 33.69921875 69.66015625 C33.56346436 68.49105713 33.42770996 67.32195801 33.2878418 66.11743164 C33.03563056 63.38589192 32.94253007 60.74025622 33 58 C50.75156168 63.02960914 65.44203995 74.98029324 74.453125 91 C74.96359375 91.99 75.4740625 92.98 76 94 C76.64195312 95.2375 76.64195312 95.2375 77.296875 96.5 C81.77660739 105.84900674 82.29262386 114.925214 82.26069641 125.17448425 C82.26452196 126.48311646 82.26834751 127.79174867 82.27228898 129.1400364 C82.28253377 132.75260935 82.28039616 136.36508265 82.27610838 139.97766364 C82.27363467 143.88170596 82.28266343 147.7857247 82.29014587 151.6897583 C82.30287801 159.33137723 82.30468834 166.972961 82.30234561 174.61458876 C82.30056026 180.8294565 82.30231675 187.0443136 82.30657005 193.25918007 C82.30716524 194.1448095 82.30776043 195.03043893 82.30837366 195.94290561 C82.30958546 197.74228857 82.31079959 199.54167152 82.31201603 201.34105448 C82.32288632 218.20684583 82.32073178 235.07261718 82.31463119 251.93840966 C82.30946519 267.34783717 82.32071 282.75720141 82.33972941 298.1666164 C82.35913065 314.00748874 82.36735963 329.84833119 82.36360615 345.68921548 C82.36169723 354.57515661 82.3641513 363.46104392 82.37832069 372.34697533 C82.39026479 379.91371293 82.39160571 387.48036361 82.37953053 395.04710247 C82.37366239 398.90303829 82.37248465 402.75881535 82.38453293 406.61474037 C82.39747853 410.80681712 82.38687799 414.99851988 82.3742218 419.19059753 C82.38159609 420.39267308 82.38897037 421.59474862 82.39656812 422.8332507 C82.32520257 434.12743203 80.66506065 445.28054091 75.25 455.3125 C74.89784424 455.98563232 74.54568848 456.65876465 74.18286133 457.35229492 C71.30735922 462.71192033 68.11293727 467.50044663 64 472 C63.21109375 472.88042969 62.4221875 473.76085937 61.609375 474.66796875 C46.37325195 490.81736818 26.88875495 499.37034408 5 502 C4.01 502 3.02 502 2 502 C3.5356799 498.72235484 5.42249212 495.81551175 7.4375 492.8125 C10.54984721 487.93455623 12.52069235 483.55656151 14 478 C14.25090897 477.10742996 14.50181793 476.21485992 14.7603302 475.29524231 C17.11282247 466.21156797 17.47358749 457.50411138 17.51171875 448.19921875 C17.52860878 446.62594747 17.54676465 445.05268933 17.56611633 443.47944641 C17.61315402 439.38449209 17.64325978 435.28959101 17.66955566 431.19445801 C17.69959763 426.99737022 17.7460452 422.8004653 17.79101562 418.60351562 C17.87652104 410.40243462 17.94409761 402.20133604 18 394 C20.7257574 393.83408392 23.45159141 393.66966564 26.17749023 393.50610352 C26.94507408 393.45922646 27.71265793 393.4123494 28.50350189 393.36405182 C36.02065249 392.91521965 43.46601456 392.93212626 51 393 C51 383.76 51 374.52 51 365 C41.40937279 365.61564073 31.81884093 366.23272139 22.2284565 366.8521328 C17.77214988 367.13989751 13.31580891 367.42710334 8.859375 367.71289062 C-8.57163049 368.83107206 -25.99775255 369.96227138 -43.41049194 371.34088135 C-52.00393578 372.0160711 -60.59970938 372.56011428 -69.20800781 373.00537109 C-71.53225168 373.12668335 -73.85592484 373.25654546 -76.1796875 373.38671875 C-84.02866753 373.81108893 -91.86963806 374.09375933 -99.73046875 374.14453125 C-100.82548706 374.15765854 -100.82548706 374.15765854 -101.94262695 374.17105103 C-115.4838265 374.17163998 -126.52662139 368.08146544 -136.16015625 358.953125 C-137.90197314 357.0390405 -139.46583523 355.08323426 -141 353 C-141.53109375 352.31421875 -142.0621875 351.6284375 -142.609375 350.921875 C-151.25069234 339.02936896 -153.26328799 324.37607618 -152 310 C-148.99065579 294.735736 -139.50338621 282.01347295 -127.15234375 272.8984375 C-115.10444434 265.27728983 -101.96005706 263.44443665 -87.984375 263.0234375 C-86.59394802 262.96833745 -85.20358726 262.91154399 -83.81329346 262.85317993 C-80.19129176 262.70475627 -76.56889438 262.57523688 -72.94598389 262.45123291 C-66.47878836 262.22672619 -60.01280053 261.96906059 -53.546875 261.7109375 C-52.85381571 261.68389425 -52.16075642 261.65685101 -51.44669533 261.62898827 C-42.78005833 261.28656616 -34.18742324 260.74311382 -25.573349 259.71824646 C-16.3500157 258.63632082 -7.08618478 258.32400879 2.1875 257.9375 C5.764424 257.78220616 9.34119775 257.6236163 12.91796875 257.46484375 C13.78090546 257.42741058 14.64384216 257.38997742 15.53292847 257.35140991 C22.05001702 257.06242907 28.5536937 256.65972885 35.05981445 256.18579102 C40.36767309 255.9355103 45.68624392 256 51 256 C51 246.76 51 237.52 51 228 C48.36 228.33 45.72 228.66 43 229 C40.91771978 229.07380033 38.83355937 229.10850812 36.75 229.09765625 C35.64785156 229.09443359 34.54570313 229.09121094 33.41015625 229.08789062 C32.28480469 229.07951172 31.15945313 229.07113281 30 229.0625 C28.26556641 229.05573242 28.26556641 229.05573242 26.49609375 229.04882812 C23.66400775 229.03712529 20.83203189 229.02072996 18 229 C17.99191315 228.19677811 17.98382629 227.39355621 17.97549438 226.56599426 C17.89748559 218.98859511 17.81017607 211.41138678 17.71247292 203.83421803 C17.66257187 199.93891255 17.61624145 196.04363338 17.578125 192.14819336 C17.54119373 188.38739613 17.49481282 184.62682232 17.44193649 180.86621666 C17.42343412 179.43297948 17.40831086 177.99969449 17.39665604 176.56638527 C17.37972306 174.55563548 17.34955528 172.54501043 17.31884766 170.53442383 C17.29886215 168.81900139 17.29886215 168.81900139 17.2784729 167.06892395 C16.99762358 163.9738105 16.2561173 161.81891848 15 159 C14.5929255 157.19637784 14.18760701 155.39220655 13.80957031 153.58227539 C10.46068797 138.0174981 2.32701839 124.92754842 -10.8125 115.6875 C-25.979948 106.12706598 -42.95047561 104.56808045 -60.4296875 106.95703125 C-68.37684786 107.99656812 -76.3079018 108.52605563 -84.3125 108.9375 C-96.58132754 109.61294227 -108.82110544 110.50102499 -121.0625 111.5625 C-121.80843414 111.62662079 -122.55436829 111.69074158 -123.32290649 111.75680542 C-132.09387416 112.50104528 -132.09387416 112.50104528 -140.83813477 113.50219727 C-145.50287299 114.09780553 -150.17408442 114.37643786 -154.8671875 114.6484375 C-156.80689662 114.76616229 -158.7465934 114.88409046 -160.6862793 115.00219727 C-161.69556488 115.06287384 -162.70485046 115.12355042 -163.74472046 115.18606567 C-179.07957879 116.11163193 -194.39199976 117.12131352 -209.6875 118.5625 C-222.77439461 119.79197088 -235.85681077 120.6218782 -248.98339844 121.29663086 C-259.36761303 121.83285468 -269.7271084 122.5168274 -280.08959961 123.39086914 C-287.40582677 123.98085865 -294.66143741 124.09329623 -302 124 C-299.33697148 121.33697148 -297.08987953 121.09769002 -293.4375 120.1875 C-292.07762229 119.84050589 -290.71826537 119.49146579 -289.359375 119.140625 C-288.64716797 118.95693359 -287.93496094 118.77324219 -287.20117188 118.58398438 C-281.38234033 117.04021274 -275.62404515 115.27411228 -269.85644531 113.55078125 C-268.25856716 113.07671325 -266.6569574 112.6152557 -265.0546875 112.15625 C-260.2364675 110.76666931 -255.66401537 109.08118356 -251.03125 107.16796875 C-247.06450726 105.63954597 -243.03902211 104.32322047 -239 103 C-233.45778705 101.18113572 -228.0107114 99.28223516 -222.625 97.03515625 C-219.95317095 95.98153319 -217.2495213 95.06047521 -214.52758789 94.14575195 C-203.12628059 90.28227894 -192.22499569 85.37567027 -181.24951172 80.45117188 C-177.06333278 78.58170173 -172.86164028 76.748833 -168.65942383 74.91577148 C-136.31608857 60.78261363 -104.51107821 45.78077847 -74 28 C-72.46776479 27.11793892 -70.93522765 26.23640203 -69.40234375 25.35546875 C-57.47808846 18.46500532 -45.76888633 11.19043664 -34.59741211 3.12890625 C-23.44291942 -4.87726 -12.4561494 -6.59006414 0 0 Z " fill="#247DFB" transform="translate(877,406)"/>
<path d="M0 0 C5.35886699 5.11304741 6.87467462 10.85091772 8.8125 17.875 C9.12380859 18.92558594 9.43511719 19.97617187 9.75585938 21.05859375 C12.97683985 32.37096035 12.97683985 32.37096035 12 38 C10.08375979 40.45337696 7.76465593 42.03610709 5.1875 43.75 C4.46755859 44.2567627 3.74761719 44.76352539 3.00585938 45.28564453 C0.69292077 46.89328576 -1.64682685 48.45194928 -4 50 C-4.73782715 50.49016602 -5.4756543 50.98033203 -6.23583984 51.48535156 C-26.82000091 65.06281496 -48.46369455 76.96322865 -70.22558594 88.52099609 C-72.5457277 89.75783337 -74.85780632 91.00707987 -77.1640625 92.26953125 C-94.94842159 101.9790509 -113.51767587 110.21163807 -131.95068359 118.59643555 C-134.73126436 119.87630415 -137.49783557 121.18331814 -140.26339722 122.495224 C-149.17570459 126.70811768 -158.24279337 130.4803766 -167.375 134.1875 C-170.32109308 135.38741582 -173.2662671 136.58956616 -176.2109375 137.79296875 C-176.90709167 138.07703583 -177.60324585 138.36110291 -178.32049561 138.65377808 C-182.61442327 140.41221099 -186.85982374 142.25458627 -191.08837891 144.16333008 C-198.39555984 147.36150492 -206.04861913 149.78202088 -213.578125 152.39453125 C-217.43493793 153.73731735 -221.28085901 155.09383909 -225.09765625 156.546875 C-253.64921093 167.33666522 -283.93969336 174.33322112 -314 179.25 C-314.91652344 179.40106201 -315.83304687 179.55212402 -316.77734375 179.70776367 C-333.78311833 182.35075441 -350.55759925 183.28832627 -367.75 183.125 C-369.63410971 183.11492802 -371.51822476 183.10580979 -373.40234375 183.09765625 C-377.93503261 183.07602743 -382.46745361 183.04174207 -387 183 C-383.36437619 181.04848208 -380.37307243 180.55854195 -376.25 180.125 C-369.28504784 179.30906891 -362.66751002 177.78067769 -355.89453125 176 C-352.32698312 175.06482601 -348.73987608 174.29631568 -345.125 173.5625 C-336.63619671 171.7814968 -328.32467659 169.42025495 -320 167 C-318.17662109 166.47019531 -318.17662109 166.47019531 -316.31640625 165.9296875 C-310.7489808 164.2640502 -305.34754354 162.41919015 -299.98046875 160.1953125 C-295.91404658 158.56448002 -291.80167113 157.06800743 -287.6875 155.5625 C-286.00643232 154.94422271 -284.32544162 154.32573607 -282.64453125 153.70703125 C-280.01874516 152.7408557 -277.39164214 151.77911253 -274.76171875 150.82421875 C-262.95188246 146.42948941 -251.49316662 141.15199463 -240 136 C-238.90300781 135.51047852 -237.80601562 135.02095703 -236.67578125 134.51660156 C-222.19861705 128.03614315 -208.16619561 121.04945107 -194.33203125 113.29296875 C-191.18910719 111.55040951 -188.00324694 109.90338705 -184.8125 108.25 C-134.26606152 81.62209034 -86.85348816 47.93776857 -43.625 10.6875 C-41.9369911 9.23705572 -40.24846844 7.78721852 -38.55908203 6.33837891 C-37.08810996 5.07563714 -35.62012984 3.80941244 -34.15234375 2.54296875 C-23.68195052 -6.22184006 -11.56611582 -8.35870555 0 0 Z " fill="#2988FA" transform="translate(815,352)"/>
<path d="M0 0 C1.08132202 -0.01238205 2.16264404 -0.0247641 3.2767334 -0.03752136 C4.43000122 -0.01394058 5.58326904 0.0096402 6.77148438 0.03393555 C8.56857849 0.03456245 8.56857849 0.03456245 10.40197754 0.03520203 C12.93036741 0.04356975 15.45875077 0.06900545 17.98681641 0.11035156 C21.85219584 0.17045157 25.71429864 0.17192917 29.58007812 0.16479492 C32.03973773 0.18020434 34.49937908 0.19897193 36.95898438 0.22143555 C38.1122522 0.22274979 39.26552002 0.22406403 40.45373535 0.22541809 C46.66718602 0.35350989 50.68548813 0.59153253 55.36523438 4.8581543 C57.07792398 8.28353351 56.55881711 12.21463723 56.58984375 15.98608398 C56.60692886 17.4058403 56.60692886 17.4058403 56.62435913 18.85427856 C56.73494757 28.75229456 56.78242817 38.65105692 56.82519531 48.54956055 C56.84748675 53.24849885 56.88927875 57.94664499 56.94824219 62.64526367 C57.0192517 68.31459447 57.05601578 73.98317854 57.0683136 79.65293121 C57.07872682 81.81394787 57.10118075 83.97494137 57.13591003 86.13570404 C57.18204265 89.16223952 57.18412503 92.18583815 57.17578125 95.21264648 C57.21117508 96.55013443 57.21117508 96.55013443 57.24728394 97.91464233 C57.1993976 101.50550752 57.1592734 103.89232429 54.82633114 106.7300005 C53.07086707 108.25213832 51.30111021 109.57685816 49.36523438 110.8581543 C48.67179932 111.38884521 47.97836426 111.91953613 47.26391602 112.46630859 C46.69020264 112.86760986 46.11648926 113.26891113 45.52539062 113.68237305 C44.86385986 114.14756348 44.2023291 114.61275391 43.52075195 115.09204102 C42.83005615 115.5717334 42.13936035 116.05142578 41.42773438 116.5456543 C40.68612061 117.06401855 39.94450684 117.58238281 39.18041992 118.11645508 C37.64891758 119.18536859 36.1161217 120.25243119 34.58203125 121.31762695 C32.54196894 122.73533545 30.50771033 124.16095991 28.47460938 125.58862305 C20.68235414 131.03247244 12.75052281 136.24070846 4.74023438 141.3581543 C3.80348877 141.95805176 2.86674316 142.55794922 1.90161133 143.17602539 C1.01046631 143.74144043 0.11932129 144.30685547 -0.79882812 144.8894043 C-1.58725098 145.39020508 -2.37567383 145.89100586 -3.18798828 146.40698242 C-5.9383428 148.03820446 -8.76973645 149.43996593 -11.63476562 150.8581543 C-11.77500759 132.33426899 -11.88077171 113.8104916 -11.94563866 95.28618526 C-11.97655988 86.68475013 -12.01870683 78.08364511 -12.08740234 69.48242188 C-12.14725796 61.98444109 -12.18592739 54.48669941 -12.19929659 46.98848635 C-12.20711012 43.01911698 -12.22543606 39.05043154 -12.26914597 35.08128166 C-12.30998533 31.34237218 -12.32241245 27.60442583 -12.31341171 23.86531448 C-12.31583987 21.84477174 -12.34806942 19.82433304 -12.38128662 17.80406189 C-12.31370216 7.86592826 -12.31370216 7.86592826 -8.94436646 3.54168701 C-6.10119201 0.85813096 -3.97742515 -0.01463472 0 0 Z " fill="#2B8BFC" transform="translate(647.634765625,286.141845703125)"/>
<path d="M0 0 C1.5671022 -0.01429802 1.5671022 -0.01429802 3.16586304 -0.02888489 C4.29400421 -0.02797348 5.42214539 -0.02706207 6.58447266 -0.02612305 C8.32490341 -0.03255074 8.32490341 -0.03255074 10.10049438 -0.03910828 C12.55673571 -0.0448554 15.01299406 -0.04534904 17.46923828 -0.04101562 C21.22669578 -0.03786014 24.98336281 -0.06129567 28.74072266 -0.08666992 C31.12613833 -0.08894331 33.51155612 -0.08964623 35.89697266 -0.08862305 C37.58311172 -0.10243767 37.58311172 -0.10243767 39.30331421 -0.11653137 C40.87987289 -0.10718819 40.87987289 -0.10718819 42.48828125 -0.09765625 C43.8703627 -0.09860039 43.8703627 -0.09860039 45.28036499 -0.0995636 C49.24211956 0.47215937 51.70306264 2.2461811 54.66474915 4.84857178 C56.62930373 8.79151881 56.26395867 12.75057485 56.21411133 17.09204102 C56.21476845 18.58521347 56.21476845 18.58521347 56.21543884 20.10855103 C56.213349 23.39849467 56.19000826 26.68792859 56.16650391 29.9777832 C56.16090866 32.25892865 56.15663823 34.54007769 56.15364075 36.82122803 C56.14218643 42.8251338 56.11271395 48.82882185 56.07952881 54.8326416 C56.04884073 60.95911717 56.03513809 67.08562792 56.02001953 73.2121582 C55.98784502 85.23308719 55.93664137 97.25385459 55.87353516 109.2746582 C53.18708053 110.70521769 50.49969793 112.13398561 47.81176758 113.56176758 C47.0596978 113.96248474 46.30762802 114.3632019 45.53276825 114.77606201 C38.845264 118.32535992 32.06488494 121.6098661 25.18603516 124.7746582 C24.00283691 125.3214624 22.81963867 125.8682666 21.60058594 126.43164062 C-8.51553816 140.2746582 -8.51553816 140.2746582 -13.12646484 140.2746582 C-13.24327099 123.02002568 -13.33143949 105.76551655 -13.3855257 88.51057911 C-13.41130651 80.49878027 -13.44645435 72.48722709 -13.50366211 64.47558594 C-13.55350126 57.4925502 -13.58575677 50.50969237 -13.59690732 43.52648371 C-13.60342535 39.82888718 -13.61874094 36.13179961 -13.65511513 32.43436623 C-13.69539492 28.30643775 -13.69641397 24.17939387 -13.6940918 20.05126953 C-13.71206818 18.82559769 -13.73004456 17.59992584 -13.74856567 16.33711243 C-13.69795981 8.04709395 -13.69795981 8.04709395 -10.77848816 4.10112 C-6.8076645 1.36639377 -4.82249894 0.02415658 0 0 Z " fill="#2B8AFA" transform="translate(548.12646484375,346.725341796875)"/>
<path d="M0 0 C1.04481033 -0.00960754 2.08962067 -0.01921509 3.16609192 -0.02911377 C4.29939438 -0.03336365 5.43269684 -0.03761353 6.6003418 -0.04199219 C8.34289497 -0.0505423 8.34289497 -0.0505423 10.12065125 -0.05926514 C12.58286627 -0.06872515 15.04509402 -0.07525308 17.50732422 -0.07910156 C21.27358127 -0.08880029 25.0392912 -0.11981227 28.80541992 -0.15136719 C31.19539063 -0.15789774 33.58536526 -0.163148 35.9753418 -0.16699219 C37.10257156 -0.17933899 38.22980133 -0.19168579 39.39118958 -0.20440674 C40.9725898 -0.19990509 40.9725898 -0.19990509 42.5859375 -0.1953125 C43.97254326 -0.20078094 43.97254326 -0.20078094 45.38716125 -0.20635986 C49.67986302 0.40040843 52.155757 2.38385855 55.2711792 5.29679871 C57.65010949 9.26796558 57.52054542 12.44428326 57.44116211 16.99047852 C57.44174622 17.86903 57.44233032 18.74758148 57.44293213 19.65275574 C57.44015215 22.54788134 57.40906429 25.441969 57.37768555 28.33691406 C57.37022285 30.34758441 57.36453005 32.35826204 57.36053467 34.36894226 C57.34528065 39.65451223 57.30600058 44.93964076 57.26171875 50.22503662 C57.22076119 55.62099232 57.2025226 61.01701952 57.18237305 66.41308594 C57.13950632 76.99596191 57.07125758 87.57851061 56.98706055 98.16113281 C55.97161415 98.35648621 55.97161415 98.35648621 54.93565369 98.55578613 C54.04245926 98.73041382 53.14926483 98.9050415 52.22900391 99.08496094 C51.34578964 99.25644653 50.46257538 99.42793213 49.55259705 99.60461426 C44.87885947 100.61844574 40.48677085 102.32369595 35.9909668 103.94238281 C32.04650036 105.24859148 28.05387999 105.90923377 23.96484375 106.60742188 C17.58869306 107.79305029 11.31788741 109.50849318 5.03979492 111.12597656 C3.98727539 111.38765625 2.93475586 111.64933594 1.8503418 111.91894531 C0.91488525 112.15758301 -0.02057129 112.3962207 -0.984375 112.64208984 C-4.72575916 113.28329764 -8.21666177 113.1934501 -12.01293945 113.16113281 C-12.12878779 99.44416442 -12.2176323 85.72731241 -12.27200031 72.00995445 C-12.29809426 65.64041235 -12.33348989 59.27120494 -12.39013672 52.90185547 C-12.44446179 46.75509984 -12.47436151 40.60866616 -12.48732567 34.461689 C-12.4965645 32.11650143 -12.51460581 29.77133149 -12.54158974 27.42628098 C-12.5778851 24.14138458 -12.58288438 20.85781855 -12.58056641 17.57275391 C-12.59854279 16.60314728 -12.61651917 15.63354065 -12.63504028 14.634552 C-12.60100068 10.17663604 -12.46516831 7.12192491 -9.60246277 3.57290649 C-6.12644165 0.33548584 -4.62276929 0.03423395 0 0 Z " fill="#2C8CFA" transform="translate(446.012939453125,402.8388671875)"/>
<path d="M0 0 C5.97458634 4.5762789 10.31857632 9.775969 11.9375 17.25 C12.94390988 25.88835144 11.17445038 33.33472343 6.25 40.5 C1.98482345 45.82616574 -3.64086773 49.08712535 -10.0625 51.25 C-17.65294162 51.95320168 -25.22374197 52.04073517 -31.56640625 47.4296875 C-38.8074519 41.37967264 -43.31836958 34.73423485 -44.265625 25.20703125 C-44.47613163 15.57635313 -41.83435735 9.20041225 -35.1875 2.19921875 C-24.75513431 -7.37017552 -11.67623706 -6.67213546 0 0 Z " fill="#16181E" transform="translate(813.0625,701.75)"/>
<path d="M0 0 C1.88785845 3.13548664 2.52264708 6.26830764 3.18920898 9.83862305 C6.49909123 28.10940883 6.49909123 28.10940883 17.05859375 42.578125 C20.32592134 44.40998358 23.46065967 45.78335176 27 47 C27.928125 47.32742188 28.85625 47.65484375 29.8125 47.9921875 C32.19409332 48.7545878 34.57486173 49.39371543 37 50 C38.19625 50.37125 39.3925 50.7425 40.625 51.125 C43.29736466 51.81783528 45.65256699 52.22003348 48.375 52.5 C49.57125 52.665 50.7675 52.83 52 53 C52.33 53.66 52.66 54.32 53 55 C51.741875 55.20753906 50.48375 55.41507812 49.1875 55.62890625 C40.45662425 57.16400528 32.1415386 58.91306741 24 62.5 C23.34902344 62.78431885 22.69804688 63.0686377 22.02734375 63.36157227 C13.91272908 67.14214712 11.13568953 72.65674656 7.96484375 80.58984375 C5.49010487 87.44948119 4.09523489 94.28394002 3.03881836 101.47631836 C2.75366717 103.32799633 2.38404729 105.16627969 2 107 C1.01 107.495 1.01 107.495 0 108 C-0.23074219 106.70707031 -0.46148438 105.41414063 -0.69921875 104.08203125 C-2.58292704 93.89725223 -4.71210206 84.47555151 -9 75 C-9.38865234 73.94425781 -9.38865234 73.94425781 -9.78515625 72.8671875 C-12.52532522 66.5055892 -18.98636016 64.39487087 -25 62 C-33.80726047 58.77443211 -42.69970966 56.32016833 -52 55 C-51.67 54.34 -51.34 53.68 -51 53 C-48.87501826 52.43550555 -46.72232952 51.97400681 -44.5625 51.5625 C-26.28928189 47.93026769 -26.28928189 47.93026769 -10.984375 37.90625 C-4.45991819 27.32976212 -1.76203919 12.20989509 0 0 Z " fill="#2A89F8" transform="translate(774,215)"/>
<path d="M0 0 C1.65103226 0.00079308 1.65103226 0.00079308 3.3354187 0.00160217 C5.09355392 0.05579567 5.09355392 0.05579567 6.88720703 0.11108398 C8.70564621 0.12594093 8.70564621 0.12594093 10.56082153 0.14109802 C14.42346411 0.18020594 18.28323947 0.26803386 22.14501953 0.35717773 C24.76737426 0.39229567 27.38977363 0.4242338 30.01220703 0.45288086 C36.43245205 0.52995696 42.85103095 0.64701526 49.27001953 0.79467773 C48.94001953 1.78467773 48.61001953 2.77467773 48.27001953 3.79467773 C47.62966263 3.78357468 46.98930573 3.77247162 46.32954407 3.7610321 C39.66246493 3.6503827 32.99564675 3.57498693 26.32788086 3.52001953 C23.83981735 3.49488102 21.35182765 3.46076526 18.86401367 3.41748047 C15.28692412 3.35680344 11.71081119 3.3284604 8.13330078 3.30639648 C7.02167068 3.28059006 5.91004059 3.25478363 4.76472473 3.22819519 C-1.6602452 3.05502239 -1.6602452 3.05502239 -6.90893555 6.26269531 C-7.50988037 7.09824951 -8.1108252 7.93380371 -8.72998047 8.79467773 C-9.05998047 9.12467773 -9.38998047 9.45467773 -9.72998047 9.79467773 C-9.83863646 11.61658931 -9.87686274 13.44272399 -9.88819885 15.26783752 C-9.89798767 16.45560791 -9.90777649 17.6433783 -9.91786194 18.86714172 C-9.9236174 20.18200058 -9.92937286 21.49685944 -9.93530273 22.8515625 C-9.94487602 24.2408579 -9.95488577 25.63015036 -9.96530151 27.0194397 C-9.99241624 30.8022989 -10.01339011 34.58517066 -10.0333035 38.3680737 C-10.05512269 42.31725958 -10.08253121 46.26640646 -10.10935974 50.21556091 C-10.1593418 57.6989002 -10.2042601 65.18226106 -10.2473821 72.66564268 C-10.29670747 81.18306276 -10.35164297 89.70044373 -10.4070617 98.21782601 C-10.52096634 115.74340712 -10.62778681 133.26902451 -10.72998047 150.79467773 C-11.05998047 150.79467773 -11.38998047 150.79467773 -11.72998047 150.79467773 C-11.87022243 132.27079243 -11.97598655 113.74701504 -12.0408535 95.2227087 C-12.07177472 86.62127357 -12.11392168 78.02016855 -12.18261719 69.41894531 C-12.2424728 61.92096453 -12.28114224 54.42322285 -12.29451144 46.92500979 C-12.30232496 42.95564042 -12.32065091 38.98695498 -12.36436081 35.0178051 C-12.40520018 31.27889562 -12.41762729 27.54094927 -12.40862656 23.80183792 C-12.41105472 21.78129517 -12.44328426 19.76085647 -12.47650146 17.74058533 C-12.40891527 7.8021959 -12.40891527 7.8021959 -9.04553223 3.47424316 C-6.16533415 0.75596723 -4.02633108 -0.06494082 0 0 Z " fill="#2A87E8" transform="translate(647.72998046875,286.205322265625)"/>
<path d="M0 0 C-2.83653788 2.83653788 -5.97007112 3.21161132 -9.78515625 4.21875 C-12.17640092 4.77386246 -12.17640092 4.77386246 -13 7 C-12.40574219 6.93941406 -11.81148437 6.87882813 -11.19921875 6.81640625 C-4.80300071 6.16982122 1.59671614 5.57215654 8 5 C8 5.33 8 5.66 8 6 C9.98 6.33 11.96 6.66 14 7 C14 7.33 14 7.66 14 8 C8.39947199 8.43355951 2.79849106 8.8605177 -2.80297852 9.28173828 C-4.70285141 9.42549506 -6.60259595 9.57095982 -8.50219727 9.71826172 C-19.02040755 10.532682 -29.4429841 11.26580201 -40 11 C-37.33697148 8.33697148 -35.08987953 8.09769002 -31.4375 7.1875 C-27.0762422 6.08419765 -22.74035316 4.94417685 -18.4375 3.62890625 C-17.31130249 3.28533081 -17.31130249 3.28533081 -16.16235352 2.93481445 C-14.71034878 2.48788443 -13.26019987 2.03486676 -11.81225586 1.57495117 C-7.75387079 0.33479439 -4.24086857 -0.23817671 0 0 Z " fill="#338AD5" transform="translate(615,519)"/>
<path d="M0 0 C0 0.99 0 1.98 0 3 C2.97 3.33 5.94 3.66 9 4 C9 4.66 9 5.32 9 6 C2.67221796 6.80454422 -3.47329393 7.13634502 -9.84765625 7.09765625 C-10.74495956 7.0962413 -11.64226288 7.09482635 -12.5667572 7.09336853 C-15.39870714 7.0878251 -18.23057445 7.07528358 -21.0625 7.0625 C-22.99674364 7.05747767 -24.93098853 7.05291606 -26.86523438 7.04882812 C-31.57685417 7.03787429 -36.28841313 7.02064953 -41 7 C-37.24109639 4.97171122 -34.00976376 4.4828882 -29.75 4 C-23.6335396 3.26863541 -23.6335396 3.26863541 -17.625 1.9375 C-11.83710969 0.44063182 -5.98178765 -0.19296089 0 0 Z " fill="#389EF3" transform="translate(469,528)"/>
<path d="M0 0 C0 0.66 0 1.32 0 2 C-5.34838564 2.2913427 -10.69708375 2.57578181 -16.04614258 2.85449219 C-17.85645867 2.94971312 -19.6666855 3.04665028 -21.47680664 3.14550781 C-33.99797842 3.82778462 -46.46042216 4.12922774 -59 4 C-59 3.67 -59 3.34 -59 3 C-57.95199219 2.93941406 -56.90398438 2.87882813 -55.82421875 2.81640625 C-54.44529952 2.73198262 -53.06639395 2.64733553 -51.6875 2.5625 C-50.99720703 2.52318359 -50.30691406 2.48386719 -49.59570312 2.44335938 C-46.52838465 2.25072585 -43.93031848 1.97677283 -41 1 C-38.59790916 0.76008711 -36.22085114 0.57415001 -33.8125 0.4375 C-33.0894165 0.3950415 -32.36633301 0.35258301 -31.62133789 0.30883789 C-21.09131469 -0.23534653 -10.54007555 -0.08651407 0 0 Z " fill="#1A2C47" transform="translate(798,542)"/>
<path d="M0 0 C0 0.66 0 1.32 0 2 C-22.71732531 3.48444599 -45.26841336 3.03213097 -68 2 C-68 1.67 -68 1.34 -68 1 C-22.65594855 -0.20900322 -22.65594855 -0.20900322 0 0 Z " fill="#2C76BF" transform="translate(481,555)"/>
<path d="M0 0 C0 23.1 0 46.2 0 70 C-0.33 70 -0.66 70 -1 70 C-1.98339953 62.16806701 -2.13171317 54.44120718 -2.09765625 46.5546875 C-2.0962413 45.30366241 -2.09482635 44.05263733 -2.09336853 42.76370239 C-2.08875093 39.47255224 -2.07980053 36.18145311 -2.06866455 32.89031982 C-2.05834925 29.51803199 -2.05384945 26.14573663 -2.04882812 22.7734375 C-2.03785206 16.18227208 -2.02115405 9.5911402 -2 3 C-4.31 2.67 -6.62 2.34 -9 2 C-9 1.67 -9 1.34 -9 1 C-5.846632 0.29925156 -3.27275026 0 0 0 Z " fill="#35A1F6" transform="translate(401,457)"/>
<path d="M0 0 C2.51800229 2.51800229 2.33505957 3.59745831 2.5625 7.09375 C2.63726563 8.125 2.71203125 9.15625 2.7890625 10.21875 C2.89347656 11.84296875 2.89347656 11.84296875 3 13.5 C3.45721616 20.40904414 4.04249034 27.08820743 5.58544922 33.84912109 C6.18356296 36.95240853 6.1369684 39.8497267 6 43 C5.34 42.67 4.68 42.34 4 42 C3.42798808 39.51129891 2.96513698 37.0792647 2.5625 34.5625 C1.59187434 28.86799382 0.3994744 23.47303605 -1.546875 18.015625 C-2.07280763 15.67613158 -1.75064902 14.25194707 -1 12 C-1 12.66 -1 13.32 -1 14 C-0.34 14 0.32 14 1 14 C0.67 9.38 0.34 4.76 0 0 Z " fill="#162A4A" transform="translate(920,546)"/>
<path d="M0 0 C1.50109768 0.4337188 3.00081177 0.87222635 4.5 1.3125 C5.75296875 1.67794922 5.75296875 1.67794922 7.03125 2.05078125 C9.35708562 2.79443659 11.58283882 3.61192942 13.8515625 4.50390625 C17.78566798 5.99052462 21.72924593 6.94050006 25.875 7.625 C26.61733887 7.74979736 27.35967773 7.87459473 28.12451172 8.00317383 C39.31745784 9.7032111 50.70004113 9.76234109 62 10 C58.56626241 12.28915839 57.48446604 12.21638727 53.46875 12.08203125 C52.35709473 12.0464209 51.24543945 12.01081055 50.10009766 11.97412109 C48.31804932 11.89411865 48.31804932 11.89411865 46.5 11.8125 C45.28489746 11.75916504 44.06979492 11.70583008 42.81787109 11.65087891 C27.00567451 10.85599213 13.4760795 9.83082409 0 1 C0 0.67 0 0.34 0 0 Z " fill="#329AF5" transform="translate(377,547)"/>
<path d="M0 0 C-0.99 0 -1.98 0 -3 0 C-3 0.66 -3 1.32 -3 2 C5.91 2 14.82 2 24 2 C24 2.33 24 2.66 24 3 C17.67221796 3.80454422 11.52670607 4.13634502 5.15234375 4.09765625 C4.25504044 4.0962413 3.35773712 4.09482635 2.4332428 4.09336853 C-0.39870714 4.0878251 -3.23057445 4.07528358 -6.0625 4.0625 C-7.99674364 4.05747767 -9.93098853 4.05291606 -11.86523438 4.04882812 C-16.57685417 4.03787429 -21.28841313 4.02064953 -26 4 C-22.22514668 1.95517974 -18.65960924 1.40571848 -14.4375 0.9375 C-1.729577 -0.53676528 -1.729577 -0.53676528 0 0 Z " fill="#337EC0" transform="translate(454,531)"/>
<path d="M0 0 C0.99 0.33 1.98 0.66 3 1 C1.50067938 2.35491884 0.00049946 3.70888678 -1.5 5.0625 C-2.41007812 5.88492187 -3.32015625 6.70734375 -4.2578125 7.5546875 C-6.59843336 9.64190781 -8.97586119 11.66860206 -11.375 13.6875 C-14.62510251 16.50337829 -16.83154334 19.2955532 -19 23 C-19.8046875 21.36328125 -19.8046875 21.36328125 -20 19 C-18.44470399 16.83783359 -16.96659464 15.0776989 -15.125 13.1875 C-14.62484375 12.66067627 -14.1246875 12.13385254 -13.609375 11.59106445 C-5.01440979 2.70569195 -5.01440979 2.70569195 0 0 Z " fill="#359AEC" transform="translate(347,472)"/>
<path d="M0 0 C0.66 0.33 1.32 0.66 2 1 C2 1.66 2 2.32 2 3 C1.0925 3.268125 0.185 3.53625 -0.75 3.8125 C-3.91030362 4.77396716 -3.91030362 4.77396716 -5.8125 6.4375 C-11.61729759 10.58378399 -18.04759398 11.37922215 -25 11 C-21.97959728 8.98639819 -19.26946889 7.88488561 -15.875 6.625 C-11.04126981 4.81032587 -6.34988527 2.85838579 -1.70703125 0.6015625 C-0.86205078 0.30378906 -0.86205078 0.30378906 0 0 Z " fill="#2B89DE" transform="translate(559,495)"/>
<path d="M0 0 C1.93359375 1.2890625 1.93359375 1.2890625 2.93359375 3.2890625 C-0.0443396 2.86364345 -1.9917146 2.33574478 -4.56640625 0.7265625 C-7.39435096 -0.89950571 -8.86106407 -1.04834194 -12.06640625 -0.7109375 C-13.05640625 -0.3809375 -14.04640625 -0.0509375 -15.06640625 0.2890625 C-15.06640625 -0.3709375 -15.06640625 -1.0309375 -15.06640625 -1.7109375 C-15.62070312 -1.54335938 -16.175 -1.37578125 -16.74609375 -1.203125 C-17.83277344 -0.89761719 -17.83277344 -0.89761719 -18.94140625 -0.5859375 C-19.66070313 -0.37710937 -20.38 -0.16828125 -21.12109375 0.046875 C-21.76304687 0.12679688 -22.405 0.20671875 -23.06640625 0.2890625 C-23.72640625 -0.3709375 -24.38640625 -1.0309375 -25.06640625 -1.7109375 C-15.81503568 -4.92880552 -8.70364338 -4.64375357 0 0 Z " fill="#2973DD" transform="translate(813.06640625,350.7109375)"/>
<path d="M0 0 C0 0.33 0 0.66 0 1 C6.93 1 13.86 1 21 1 C21 1.33 21 1.66 21 2 C16.786848 2.28957959 12.57339532 2.57417763 8.35961914 2.85449219 C6.93114514 2.95018405 5.502756 3.04715279 4.07446289 3.14550781 C-4.29023554 3.72056249 -12.6098514 4.16055567 -21 4 C-21 3.67 -21 3.34 -21 3 C-20.32453125 2.95101562 -19.6490625 2.90203125 -18.953125 2.8515625 C-18.06109375 2.77679687 -17.1690625 2.70203125 -16.25 2.625 C-15.36828125 2.55539062 -14.4865625 2.48578125 -13.578125 2.4140625 C-8.54236005 1.60528813 -5.44650269 -0.20948087 0 0 Z " fill="#205CB4" transform="translate(474,935)"/>
<path d="M0 0 C-0.84884766 0.27263672 -0.84884766 0.27263672 -1.71484375 0.55078125 C-2.44832031 0.80214844 -3.18179688 1.05351562 -3.9375 1.3125 C-4.66839844 1.55613281 -5.39929688 1.79976563 -6.15234375 2.05078125 C-8.35932024 2.91240441 -8.35932024 2.91240441 -9 6 C-8.34 6.33 -7.68 6.66 -7 7 C-12.0302076 6.47462276 -17.01885239 5.89405214 -22 5 C-21.67 4.34 -21.34 3.68 -21 3 C-18.72958206 2.39320032 -16.43153231 1.88795774 -14.125 1.4375 C-2.67729583 -0.83088491 -2.67729583 -0.83088491 0 0 Z " fill="#3C89D0" transform="translate(744,265)"/>
<path d="M0 0 C4.29 0 8.58 0 13 0 C13 9.24 13 18.48 13 28 C9.7 28 6.4 28 3 28 C3 27.67 3 27.34 3 27 C3.94875 26.87625 4.8975 26.7525 5.875 26.625 C9.08667191 26.28312823 9.08667191 26.28312823 11 24 C11.37095708 21.57753405 11.37095708 21.57753405 11.4140625 18.7734375 C11.45273437 17.7421875 11.49140625 16.7109375 11.53125 15.6484375 C11.5621875 14.56820312 11.593125 13.48796875 11.625 12.375 C11.68300781 10.74304688 11.68300781 10.74304688 11.7421875 9.078125 C11.83665846 6.38570255 11.91942581 3.69287416 12 1 C8.04 1 4.08 1 0 1 C0 0.67 0 0.34 0 0 Z " fill="#1B2846" transform="translate(915,771)"/>
<path d="M0 0 C2.475 0.495 2.475 0.495 5 1 C5.83536335 6.29063457 6.19156496 10.69211971 5 16 C4.34 16.33 3.68 16.66 3 17 C2.01 11.39 1.02 5.78 0 0 Z " fill="#2275EF" transform="translate(771,306)"/>
<path d="M0 0 C0.66 0 1.32 0 2 0 C2.33 0.99 2.66 1.98 3 3 C1.45049732 4.54950268 -0.09990594 4.21655193 -2.25390625 4.31640625 C-3.10791016 4.35830078 -3.96191406 4.40019531 -4.84179688 4.44335938 C-5.73962891 4.48267578 -6.63746094 4.52199219 -7.5625 4.5625 C-8.46419922 4.60568359 -9.36589844 4.64886719 -10.29492188 4.69335938 C-12.52978485 4.79978142 -14.76476308 4.90179988 -17 5 C-16 3 -16 3 -14.1796875 2.33203125 C-9.05008607 1.17569737 -5.15147249 0.90394202 0 2 C0 1.34 0 0.68 0 0 Z " fill="#3892DD" transform="translate(596,524)"/>
<path d="M0 0 C2.23617047 4.47234093 3.12628889 7.27575559 3.0625 12.1875 C3.05347656 13.08855469 3.04445313 13.98960937 3.03515625 14.91796875 C3.02355469 15.60503906 3.01195312 16.29210937 3 17 C1.35 17.33 -0.3 17.66 -2 18 C-1.34 16.35 -0.68 14.7 0 13 C-0.33 13 -0.66 13 -1 13 C-0.67 8.71 -0.34 4.42 0 0 Z " fill="#3598F7" transform="translate(774,215)"/>
<path d="M0 0 C0.33 0 0.66 0 1 0 C0.98839844 0.96421875 0.97679687 1.9284375 0.96484375 2.921875 C0.95582031 4.18515625 0.94679688 5.4484375 0.9375 6.75 C0.92589844 8.00296875 0.91429687 9.2559375 0.90234375 10.546875 C0.97978973 13.28536501 1.17219185 15.41880293 2 18 C1.34 18.33 0.68 18.66 0 19 C-2.04197653 14.0226822 -2.6580724 9.32264441 -2 4 C-0.984375 1.7265625 -0.984375 1.7265625 0 0 Z " fill="#3398E7" transform="translate(365,492)"/>
<path d="M0 0 C1.97986082 0.11347619 3.95891598 0.2410935 5.9375 0.375 C7.03964844 0.44460938 8.14179687 0.51421875 9.27734375 0.5859375 C10.62505859 0.79089844 10.62505859 0.79089844 12 1 C12.33 1.66 12.66 2.32 13 3 C8.38 3.66 3.76 4.32 -1 5 C-0.67 3.35 -0.34 1.7 0 0 Z " fill="#266BD4" transform="translate(814,267)"/>
<path d="M0 0 C2 2 2 2 2.22705078 4.06298828 C2.21657715 4.89040527 2.20610352 5.71782227 2.1953125 6.5703125 C2.18886719 7.46621094 2.18242188 8.36210938 2.17578125 9.28515625 C2.15902344 10.22230469 2.14226563 11.15945313 2.125 12.125 C2.11597656 13.06988281 2.10695313 14.01476562 2.09765625 14.98828125 C2.07404522 17.32577292 2.04111516 19.66276123 2 22 C-0.70705488 18.6615409 -1.51178906 16.29625631 -2 12 C-1.67 12.66 -1.34 13.32 -1 14 C-0.34 14 0.32 14 1 14 C0.67 9.38 0.34 4.76 0 0 Z " fill="#172C4E" transform="translate(920,546)"/>
<path d="M0 0 C0.33 0 0.66 0 1 0 C2.32286246 4.96073422 2.08893197 9.91111512 2 15 C1.34 15 0.68 15 0 15 C-2.46153846 7.15384615 -2.46153846 7.15384615 -2 3 C-1.34 2.01 -0.68 1.02 0 0 Z " fill="#12120D" transform="translate(919,545)"/>
<path d="M0 0 C0 0.66 0 1.32 0 2 C-7.02804699 2.85373239 -13.92278069 3.12109311 -21 3 C-21 2.67 -21 2.34 -21 2 C-17.7 2 -14.4 2 -11 2 C-11 1.34 -11 0.68 -11 0 C-7.18243176 -1.37432457 -3.92744671 -0.67975039 0 0 Z " fill="#2C83D7" transform="translate(685,521)"/>
<path d="M0 0 C1.20735437 3.7729824 1.54244395 7.06728139 1 11 C-1.07810288 13.37423255 -3.4168452 15.20101719 -6 17 C-5.731875 16.360625 -5.46375 15.72125 -5.1875 15.0625 C-3.64622477 11.0876323 -2.32735044 7.05031507 -1 3 C-0.67 2.01 -0.34 1.02 0 0 Z " fill="#1A62D9" transform="translate(892,881)"/>
<path d="M0 0 C0 0.33 0 0.66 0 1 C-7.69118596 1.75166913 -15.27227893 2.13690844 -23 2 C-23 1.67 -23 1.34 -23 1 C-22.00419922 0.92652344 -22.00419922 0.92652344 -20.98828125 0.8515625 C-15.53165027 0.46191994 -15.53165027 0.46191994 -10.375 -1.1875 C-6.60187394 -2.47830628 -3.75914084 -1.14685653 0 0 Z " fill="#1E5CBF" transform="translate(813,912)"/>
<path d="M0 0 C1.26026798 2.52053595 0.91874445 3.8542098 0.5625 6.625 C0.46066406 7.44226563 0.35882813 8.25953125 0.25390625 9.1015625 C0.17011719 9.72804688 0.08632813 10.35453125 0 11 C-1.65 11.66 -3.3 12.32 -5 13 C-3.91343356 8.06866002 -2.8990762 4.21683811 0 0 Z " fill="#1A2332" transform="translate(363,494)"/>
<path d="M0 0 C2.31 0.66 4.62 1.32 7 2 C6.01 2.33 5.02 2.66 4 3 C3.67 5.64 3.34 8.28 3 11 C0.43383368 7.15075052 0.44902324 4.5650696 0 0 Z " fill="#257AE1" transform="translate(910,464)"/>
<path d="M0 0 C0.99 0.99 1.98 1.98 3 3 C-1.29 3 -5.58 3 -10 3 C-8.0507107 -0.89857861 -3.87122854 -0.32260238 0 0 Z " fill="#246DDE" transform="translate(702,918)"/>
<path d="M0 0 C-0.804375 0.28875 -1.60875 0.5775 -2.4375 0.875 C-5.1326468 1.73262568 -5.1326468 1.73262568 -6 4 C-9.9167686 5.23098442 -13.02389268 4.83220851 -17 4 C-17 3.67 -17 3.34 -17 3 C-14.92085336 2.29994051 -12.83648414 1.61537756 -10.75 0.9375 C-9.58984375 0.55464844 -8.4296875 0.17179688 -7.234375 -0.22265625 C-4.19922915 -0.95211763 -2.84296787 -1.11889082 0 0 Z " fill="#328BD6" transform="translate(504,518)"/>
<path d="M0 0 C4.7632312 4.51253482 4.7632312 4.51253482 6.0625 7.1875 C7.27341861 9.52860931 8.60177814 10.04071126 11 11 C7 11 7 11 5.078125 9.35546875 C4.17320312 8.28232422 4.17320312 8.28232422 3.25 7.1875 C2.63640625 6.47980469 2.0228125 5.77210938 1.390625 5.04296875 C0 3 0 3 0 0 Z " fill="#329AEC" transform="translate(367,513)"/>
<path d="M0 0 C3.59634744 3.49359465 6.83451967 7.11098131 10 11 C7 11 7 11 5.17578125 9.35546875 C4.56089844 8.64003906 3.94601562 7.92460938 3.3125 7.1875 C2.37857422 6.12595703 2.37857422 6.12595703 1.42578125 5.04296875 C0 3 0 3 0 0 Z " fill="#2077E4" transform="translate(736,756)"/>
<path d="M0 0 C0.66 0.99 1.32 1.98 2 3 C0.625 6.6875 0.625 6.6875 -1 10 C-1.66 10 -2.32 10 -3 10 C-3.33 10.99 -3.66 11.98 -4 13 C-3.50269348 8.02693484 -2.44697666 4.36200187 0 0 Z " fill="#2F8BD3" transform="translate(321,503)"/>
<path d="M0 0 C0.66 0.33 1.32 0.66 2 1 C1.07544441 2.508013 0.1349253 4.00624917 -0.8125 5.5 C-1.33457031 6.3353125 -1.85664062 7.170625 -2.39453125 8.03125 C-2.92433594 8.6809375 -3.45414063 9.330625 -4 10 C-4.99 10 -5.98 10 -7 10 C-5.6062718 5.56541027 -3.39417765 3.12621626 0 0 Z " fill="#172335" transform="translate(791,280)"/>
<path d="M0 0 C0.66 0.33 1.32 0.66 2 1 C1.05065487 2.67180274 0.09026687 4.33733936 -0.875 6 C-1.40867187 6.928125 -1.94234375 7.85625 -2.4921875 8.8125 C-2.98976563 9.534375 -3.48734375 10.25625 -4 11 C-4.66 11 -5.32 11 -6 11 C-4.74194623 6.49197399 -3.09592835 3.5087188 0 0 Z " fill="#2B7AE3" transform="translate(736,693)"/>
<path d="M0 0 C-0.33 0.66 -0.66 1.32 -1 2 C-3.36328125 2.66796875 -3.36328125 2.66796875 -6.3125 3.1875 C-7.27800781 3.36667969 -8.24351562 3.54585937 -9.23828125 3.73046875 C-11.85407018 3.98575791 -13.53351909 3.82606605 -16 3 C-5.62642369 -0.44419134 -5.62642369 -0.44419134 0 0 Z " fill="#2F87D5" transform="translate(486,523)"/>
<path d="M0 0 C-3.09423168 3.09423168 -6.5523812 3.93706005 -10.875 4.125 C-11.57625 4.08375 -12.2775 4.0425 -13 4 C-13 3.34 -13 2.68 -13 2 C-8.50343896 -0.24828052 -4.92127034 -0.16682272 0 0 Z " fill="#191C26" transform="translate(647,506)"/>
<path d="M0 0 C3.375 0.8125 3.375 0.8125 5.375 2.8125 C1.085 2.8125 -3.205 2.8125 -7.625 2.8125 C-3.625 -0.1875 -3.625 -0.1875 0 0 Z " fill="#236EDA" transform="translate(619.625,924.1875)"/>
<path d="M0 0 C0.66 0.33 1.32 0.66 2 1 C2 5.95 2 10.9 2 16 C-0.25090196 12.62364705 -0.39443591 10.86259337 -0.6875 6.875 C-0.81705078 5.26238281 -0.81705078 5.26238281 -0.94921875 3.6171875 C-0.96597656 2.75351562 -0.98273437 1.88984375 -1 1 C-0.67 0.67 -0.34 0.34 0 0 Z " fill="#192E4E" transform="translate(916,541)"/>
<path d="M0 0 C-6.41752969 3.56529427 -11.93586546 2.8915898 -19 2 C-19 1.67 -19 1.34 -19 1 C-12.63849395 0.34513908 -6.39628979 -0.12068471 0 0 Z " fill="#192B44" transform="translate(783,515)"/>
<path d="M0 0 C-3.37169992 2.83222793 -6.85888893 4.52103176 -11 6 C-13.21875 5.578125 -13.21875 5.578125 -15 5 C-13.44424022 4.15415002 -11.8800388 3.32381601 -10.3125 2.5 C-9.44238281 2.0359375 -8.57226562 1.571875 -7.67578125 1.09375 C-4.88211171 -0.04818792 -2.98370887 -0.21504208 0 0 Z " fill="#3791DE" transform="translate(368,463)"/>
<path d="M0 0 C0.68835938 0.05671875 1.37671875 0.1134375 2.0859375 0.171875 C3.76657689 0.31192828 5.44596005 0.46692245 7.125 0.625 C7.125 0.955 7.125 1.285 7.125 1.625 C-3.27 2.12 -3.27 2.12 -13.875 2.625 C-13.875 2.295 -13.875 1.965 -13.875 1.625 C-9.07648636 -0.33327192 -5.07582086 -0.49184311 0 0 Z " fill="#1B3967" transform="translate(844.875,665.375)"/>
<path d="M0 0 C0 0.66 0 1.32 0 2 C-3.96 2 -7.92 2 -12 2 C-8.40939861 -1.59060139 -4.69614193 -1.20757935 0 0 Z " fill="#2270DF" transform="translate(597,927)"/>
<path d="M0 0 C-0.99 1.485 -0.99 1.485 -2 3 C-4.8203125 3.51171875 -4.8203125 3.51171875 -8.125 3.6875 C-9.76855469 3.78611328 -9.76855469 3.78611328 -11.4453125 3.88671875 C-12.28835938 3.92410156 -13.13140625 3.96148438 -14 4 C-11.37350692 2.24900461 -9.38191413 1.30690675 -6.4375 0.3125 C-5.65246094 0.04050781 -4.86742187 -0.23148438 -4.05859375 -0.51171875 C-2 -1 -2 -1 0 0 Z " fill="#2E7CC6" transform="translate(625,515)"/>
<path d="M0 0 C4.51478398 0.53115106 7.34666857 2.36620292 11 5 C9.234375 5.6484375 9.234375 5.6484375 7 6 C5.078125 5.0390625 5.078125 5.0390625 3.25 3.625 C2.63640625 3.16351563 2.0228125 2.70203125 1.390625 2.2265625 C0.93171875 1.82179688 0.4728125 1.41703125 0 1 C0 0.67 0 0.34 0 0 Z " fill="#1C71E8" transform="translate(805,348)"/>
<path d="M0 0 C-2.3129482 2.3129482 -3.47904875 2.49580975 -6.625 3.125 C-7.44226563 3.29257812 -8.25953125 3.46015625 -9.1015625 3.6328125 C-10.04128906 3.81457031 -10.04128906 3.81457031 -11 4 C-11 3.34 -11 2.68 -11 2 C-9.73392393 1.46770674 -8.46189588 0.94955456 -7.1875 0.4375 C-6.47980469 0.14746094 -5.77210938 -0.14257812 -5.04296875 -0.44140625 C-3 -1 -3 -1 0 0 Z " fill="#328EDF" transform="translate(572,513)"/>
<path d="M0 0 C-2 2 -2 2 -4.3828125 2.1953125 C-5.28773438 2.17210937 -6.19265625 2.14890625 -7.125 2.125 C-8.49011719 2.09792969 -8.49011719 2.09792969 -9.8828125 2.0703125 C-10.58148437 2.04710937 -11.28015625 2.02390625 -12 2 C-8.17961144 -1.82038856 -4.9914244 -0.84760037 0 0 Z " fill="#2577EA" transform="translate(610,926)"/>
<path d="M0 0 C0.66 0.99 1.32 1.98 2 3 C5.06556598 3.73343428 5.06556598 3.73343428 8 4 C8 4.33 8 4.66 8 5 C4.37 5.33 0.74 5.66 -3 6 C-2 4 -1 2 0 0 Z " fill="#2766D3" transform="translate(882,902)"/>
<path d="M0 0 C0.33 0 0.66 0 1 0 C1.98248524 4.0527516 2.08159574 7.83861737 2 12 C1.34 11.67 0.68 11.34 0 11 C-1.27368421 3.82105263 -1.27368421 3.82105263 0 0 Z " fill="#1C4077" transform="translate(924,577)"/>
<path d="M0 0 C0 0.66 0 1.32 0 2 C-4.0527516 2.98248524 -7.83861737 3.08159574 -12 3 C-8.52582963 0.68388642 -4.04642977 -2.02321489 0 0 Z " fill="#378FDA" transform="translate(502,529)"/>
<path d="M0 0 C0.66 0.33 1.32 0.66 2 1 C0.375 3.0625 0.375 3.0625 -2 5 C-5.25 4.75 -5.25 4.75 -8 4 C-6.66666667 3.33333333 -5.33333333 2.66666667 -4 2 C-3.29875 1.608125 -2.5975 1.21625 -1.875 0.8125 C-1.25625 0.544375 -0.6375 0.27625 0 0 Z " fill="#2985D6" transform="translate(521,510)"/>
<path d="M0 0 C0.33 0.99 0.66 1.98 1 3 C-0.65 4.65 -2.3 6.3 -4 8 C-4.99 7.67 -5.98 7.34 -7 7 C-4.69 4.69 -2.38 2.38 0 0 Z " fill="#287BEA" transform="translate(745,683)"/>
<path d="M0 0 C0.99 0.33 1.98 0.66 3 1 C0.6875 3.5 0.6875 3.5 -2 6 C-2.99 6 -3.98 6 -5 6 C-3.63016497 2.83884224 -3.0109362 2.0072908 0 0 Z " fill="#2D8BDA" transform="translate(541,348)"/>
<path d="M0 0 C0.66 0.33 1.32 0.66 2 1 C2 3.64 2 6.28 2 9 C1.01 9.495 1.01 9.495 0 10 C-0.19412181 8.52168779 -0.38012131 7.04230684 -0.5625 5.5625 C-0.66691406 4.73878906 -0.77132812 3.91507812 -0.87890625 3.06640625 C-0.91886719 2.38449219 -0.95882812 1.70257813 -1 1 C-0.67 0.67 -0.34 0.34 0 0 Z " fill="#1D66CC" transform="translate(774,313)"/>
<path d="M0 0 C1.95216435 3.90432869 2.50639991 6.72213252 3 11 C2.34 10.34 1.68 9.68 1 9 C0.01 9.495 0.01 9.495 -1 10 C-0.67 6.7 -0.34 3.4 0 0 Z " fill="#337ECB" transform="translate(774,215)"/>
<path d="M0 0 C3.96 0 7.92 0 12 0 C12 0.66 12 1.32 12 2 C10.02 2.33 8.04 2.66 6 3 C6 2.67 6 2.34 6 2 C3.03 1.505 3.03 1.505 0 1 C0 0.67 0 0.34 0 0 Z " fill="#19212E" transform="translate(603,528)"/>
<path d="M0 0 C0.66 0 1.32 0 2 0 C2.33 0.99 2.66 1.98 3 3 C2 4 2 4 -1.5625 4.0625 C-2.696875 4.041875 -3.83125 4.02125 -5 4 C-4.67 3.01 -4.34 2.02 -4 1 C-2.02 1.495 -2.02 1.495 0 2 C0 1.34 0 0.68 0 0 Z " fill="#3CA0F6" transform="translate(596,524)"/>
<path d="M0 0 C0.66 0.33 1.32 0.66 2 1 C1.67 2.65 1.34 4.3 1 6 C2.32 6.66 3.64 7.32 5 8 C3.02 8.66 1.04 9.32 -1 10 C-0.67 6.7 -0.34 3.4 0 0 Z " fill="#2A7EF2" transform="translate(537,477)"/>
<path d="M0 0 C0.66 0.33 1.32 0.66 2 1 C2 2.65 2 4.3 2 6 C0.35 5.67 -1.3 5.34 -3 5 C-3 3.68 -3 2.36 -3 1 C-2.01 0.67 -1.02 0.34 0 0 Z " fill="#46A4F9" transform="translate(738,266)"/>
<path d="M0 0 C3.25 0.8125 3.25 0.8125 6 2 C6 2.33 6 2.66 6 3 C2.7 3 -0.6 3 -4 3 C-2.68 2.01 -1.36 1.02 0 0 Z " fill="#2674E6" transform="translate(536,930)"/>
<path d="M0 0 C-2.40545638 1.20272819 -3.94996953 1.10071472 -6.625 1.0625 C-7.85089844 1.04896484 -7.85089844 1.04896484 -9.1015625 1.03515625 C-10.04128906 1.01775391 -10.04128906 1.01775391 -11 1 C-7.46971544 -2.53028456 -4.14884561 -2.61223613 0 0 Z " fill="#2272E7" transform="translate(716,919)"/>
<path d="M0 0 C-2.1490568 2.47141532 -3.68879509 3.69898137 -7 4 C-8.35212298 3.37231722 -9.68870382 2.70903071 -11 2 C-9.54494642 1.47007308 -8.08581873 0.9513211 -6.625 0.4375 C-5.81289063 0.14746094 -5.00078125 -0.14257812 -4.1640625 -0.44140625 C-2 -1 -2 -1 0 0 Z " fill="#2E78C1" transform="translate(637,511)"/>
<path d="M0 0 C-1.90401138 1.90401138 -3.33425686 2.93520439 -6.046875 3.19921875 C-8.03233273 3.1886578 -10.0169914 3.09915043 -12 3 C-7.86112344 0.24074896 -4.92824278 -0.13689563 0 0 Z " fill="#3190E1" transform="translate(546,503)"/>
<path d="M0 0 C0.33 0.66 0.66 1.32 1 2 C-0.65 3.65 -2.3 5.3 -4 7 C-4.66 6.34 -5.32 5.68 -6 5 C-4.02 3.35 -2.04 1.7 0 0 Z " fill="#2176E9" transform="translate(783,353)"/>
<path d="M0 0 C3.36720387 1.39332574 4.9859524 2.9789286 7 6 C4 6 4 6 1.8125 4.125 C0 2 0 2 0 0 Z " fill="#141C2D" transform="translate(334,911)"/>
<path d="M0 0 C-1 1.5 -1 1.5 -3 3 C-5.71846235 3.27345479 -8.25677199 3.13491285 -11 3 C-3.71428571 -1.85714286 -3.71428571 -1.85714286 0 0 Z " fill="#2A75BC" transform="translate(534,507)"/>
<path d="M0 0 C0.66 0.33 1.32 0.66 2 1 C0.515 2.485 0.515 2.485 -1 4 C-1.66 3.67 -2.32 3.34 -3 3 C-3 3.66 -3 4.32 -3 5 C-4.32 4.34 -5.64 3.68 -7 3 C-4.69631264 1.93347808 -2.35981813 0.93578995 0 0 Z " fill="#297BD4" transform="translate(733,470)"/>
<path d="M0 0 C0.99 0.33 1.98 0.66 3 1 C1.02579865 3.52259061 0.03254358 3.9929808 -3.1875 4.6875 C-4.5796875 4.8421875 -4.5796875 4.8421875 -6 5 C-4.06745228 2.9754262 -2.36841312 1.57894208 0 0 Z " fill="#2C88E9" transform="translate(673,435)"/>
<path d="M0 0 C0.33 0 0.66 0 1 0 C1 1.98 1 3.96 1 6 C1.66 6.33 2.32 6.66 3 7 C2.01 7.99 1.02 8.98 0 10 C-1.2380014 6.42355152 -0.74926071 3.66305234 0 0 Z " fill="#2167DB" transform="translate(894,871)"/>
<path d="M0 0 C0.66 0.33 1.32 0.66 2 1 C2 1.66 2 2.32 2 3 C-0.31 3.66 -2.62 4.32 -5 5 C-5.66 4.34 -6.32 3.68 -7 3 C-4.69631264 1.93347808 -2.35981813 0.93578995 0 0 Z " fill="#2D7DC9" transform="translate(559,495)"/>
<path d="M0 0 C2.97 0.495 2.97 0.495 6 1 C1.25 5 1.25 5 -1 5 C-0.67 3.35 -0.34 1.7 0 0 Z " fill="#2E78EC" transform="translate(638,431)"/>
<path d="M0 0 C0.66 0.33 1.32 0.66 2 1 C0.35 2.65 -1.3 4.3 -3 6 C-3.99 5.67 -4.98 5.34 -6 5 C-4.06745228 2.9754262 -2.36841312 1.57894208 0 0 Z " fill="#2378E5" transform="translate(813,428)"/>
</svg>
