<?xml version="1.0" encoding="UTF-8"?>
<svg version="1.1" xmlns="http://www.w3.org/2000/svg" width="1254" height="1254">
<path d="M0 0 C4.05776367 0.00420843 8.11550987 -0.00325302 12.17326914 -0.00915251 C19.27055049 -0.01787902 26.36780297 -0.01923931 33.46508835 -0.01564924 C44.01961647 -0.01032455 54.57411683 -0.01645527 65.12864194 -0.02473217 C85.07948241 -0.03994839 105.03031016 -0.04167966 124.98115521 -0.03920914 C140.39146837 -0.03737427 155.80177737 -0.03914015 171.21209 -0.04343358 C173.42852298 -0.04403599 175.64495597 -0.04463719 177.86138896 -0.04523719 C181.20162885 -0.04614447 184.54186874 -0.04705314 187.88210863 -0.04796954 C218.92654513 -0.0563956 249.97098007 -0.06073718 281.01541756 -0.05656282 C282.18501508 -0.05640644 283.35461259 -0.05625007 284.55965246 -0.05608895 C290.48720661 -0.05528321 296.41476075 -0.05443743 302.3423149 -0.05357565 C303.51947814 -0.05340456 304.69664138 -0.05323347 305.90947624 -0.0530572 C308.28998488 -0.05271054 310.67049352 -0.05236201 313.05100216 -0.05201161 C350.08438917 -0.04665548 387.11775238 -0.0545832 424.15113495 -0.07304517 C465.7901219 -0.09377899 507.42909409 -0.10448522 549.06808649 -0.10046969 C553.51126995 -0.10007436 557.95445341 -0.09971281 562.39763687 -0.0993723 C563.4916032 -0.09928157 564.58556952 -0.09919084 565.71268634 -0.09909736 C582.19959756 -0.09793326 598.68649385 -0.10456546 615.17340134 -0.11518422 C633.93305482 -0.12725473 652.69267547 -0.12877392 671.45232945 -0.11639406 C681.93867207 -0.1097829 692.42493613 -0.11135613 702.9112724 -0.12498257 C709.93117106 -0.13326494 716.95101126 -0.13048068 723.97090523 -0.1190073 C727.96039121 -0.11278816 731.94972461 -0.11105216 735.93920141 -0.12287064 C757.98673867 -0.18378309 779.74534852 0.72768266 801.26881073 5.95063647 C802.33986054 6.20627368 803.41091034 6.46191088 804.5144162 6.72529467 C842.08731841 16.01468943 876.91448557 33.98261221 906.20631073 59.26313647 C907.35873261 60.24926928 907.35873261 60.24926928 908.53443573 61.25532397 C920.3104927 71.58861899 931.77185263 82.7329968 941.20631073 95.26313647 C941.67037323 95.86722338 942.13443573 96.4713103 942.61256073 97.09370288 C979.29738991 145.0436757 994.75454347 200.05260584 994.59171339 259.74423648 C994.58400103 263.81412249 994.59392287 267.88397585 994.60144339 271.95385703 C994.61220899 279.06464335 994.61199293 286.17536118 994.60430191 293.28615054 C994.59289599 303.86061549 994.59878585 314.43502328 994.60792683 325.00948792 C994.6236816 343.90178905 994.62237185 362.79405964 994.6136901 381.68636363 C994.60613006 398.21978051 994.60417955 414.75318623 994.60775803 431.28660449 C994.60798718 432.38521764 994.60821634 433.4838308 994.60845244 434.61573526 C994.60938652 439.07586656 994.61034173 443.53599784 994.61133173 447.99612912 C994.62049949 489.79729979 994.61220301 531.59845106 994.59604104 573.39961872 C994.58180526 610.50094492 994.58307918 647.60224023 994.59742401 684.70356616 C994.61350353 726.43047775 994.6198492 768.15737222 994.61058722 809.88428649 C994.60962514 814.33608047 994.60868661 818.78787446 994.60775803 823.23966845 C994.60740218 824.88376977 994.60740218 824.88376977 994.60703914 826.56108525 C994.60363317 843.08019208 994.60760551 859.59928649 994.61519669 876.1183916 C994.62378926 894.90979496 994.62159848 913.70116314 994.60535446 932.49256214 C994.59657251 942.99691272 994.59593149 953.50118702 994.60729298 964.00553556 C994.61405561 971.03598783 994.60976986 978.06637938 994.59677867 985.09682271 C994.58969276 989.09306528 994.58709547 993.08915715 994.59799662 997.08539458 C994.65237375 1018.59023492 993.84926469 1039.74361427 988.51881073 1060.70063647 C988.26099823 1061.73027514 988.00318573 1062.75991381 987.73756073 1063.82075366 C978.64853709 1099.1537946 963.01786782 1131.71691393 940.20631073 1160.26313647 C939.74176483 1160.84482592 939.27721894 1161.42651538 938.79859589 1162.02583178 C927.19033907 1176.38782735 914.00092296 1190.17240877 899.20631073 1201.26313647 C898.64379608 1201.69142749 898.08128144 1202.1197185 897.50172089 1202.56098803 C889.04225593 1208.99152952 880.4070493 1214.92944456 871.20631073 1220.26313647 C870.51005585 1220.6753142 869.81380097 1221.08749194 869.09644745 1221.51215991 C842.5227155 1237.16933187 812.74882263 1247.79901575 782.20631073 1252.26313647 C781.10125329 1252.43104872 779.99619585 1252.59896097 778.85765181 1252.77196147 C764.10586095 1254.80614257 749.26979085 1254.54985347 734.41262146 1254.52627294 C730.3548578 1254.52206451 726.2971116 1254.52952596 722.23935233 1254.53542545 C715.14207098 1254.54415196 708.04481849 1254.54551225 700.94753311 1254.54192218 C690.39300499 1254.53659749 679.83850463 1254.54272821 669.28397952 1254.55100511 C649.33313905 1254.56622133 629.38231131 1254.5679526 609.43146625 1254.56548208 C594.0211531 1254.56364721 578.6108441 1254.56541309 563.20053147 1254.56970652 C560.98409848 1254.57030893 558.76766549 1254.57091013 556.55123251 1254.57151013 C553.21099262 1254.57241741 549.87075273 1254.57332608 546.53051284 1254.57424248 C515.48607633 1254.58266854 484.44164139 1254.58701012 453.39720391 1254.58283576 C452.22760639 1254.58267938 451.05800887 1254.58252301 449.85296901 1254.58236189 C443.92541486 1254.58155615 437.99786071 1254.58071037 432.07030657 1254.57984859 C430.89314333 1254.5796775 429.71598008 1254.57950641 428.50314523 1254.57933014 C426.12263659 1254.57898348 423.74212795 1254.57863495 421.36161931 1254.57828455 C384.32823229 1254.57292842 347.29486909 1254.58085614 310.26148651 1254.59931811 C268.62249957 1254.62005193 226.98352737 1254.63075816 185.34453498 1254.62674262 C180.90135152 1254.6263473 176.45816806 1254.62598575 172.01498459 1254.62564524 C170.92101827 1254.62555451 169.82705195 1254.62546378 168.69993513 1254.6253703 C152.2130239 1254.6242062 135.72612762 1254.6308384 119.23922013 1254.64145716 C100.47956665 1254.65352767 81.71994599 1254.65504686 62.96029201 1254.642667 C52.47394939 1254.63605584 41.98768534 1254.63762907 31.50134906 1254.65125551 C24.4814504 1254.65953788 17.46161021 1254.65675362 10.44171624 1254.64528024 C6.45223026 1254.6390611 2.46289685 1254.6373251 -1.52657995 1254.64914358 C-75.15251664 1254.85215196 -138.62145792 1229.07408268 -190.98118927 1177.26313647 C-196.66499964 1171.5654894 -201.90492481 1165.66550415 -206.79368927 1159.26313647 C-207.20651153 1158.73204272 -207.6193338 1158.20094897 -208.04466583 1157.65376147 C-244.96043763 1109.99935287 -260.34133348 1054.25792205 -260.17909193 994.78203646 C-260.17137957 990.71215045 -260.18130141 986.64229709 -260.18882193 982.57241591 C-260.19958752 975.46162959 -260.19937147 968.35091176 -260.19168045 961.2401224 C-260.18027453 950.66565745 -260.18616439 940.09124966 -260.19530537 929.51678502 C-260.21106014 910.62448389 -260.20975039 891.7322133 -260.20106863 872.83990931 C-260.1935086 856.30649243 -260.19155808 839.77308671 -260.19513656 823.23966845 C-260.19536572 822.1410553 -260.19559487 821.04244214 -260.19583097 819.91053768 C-260.19676506 815.45040638 -260.19772027 810.9902751 -260.19871027 806.53014382 C-260.20787802 764.72897315 -260.19958155 722.92782188 -260.18341957 681.12665422 C-260.16918379 644.02532802 -260.17045772 606.92403271 -260.18480255 569.82270678 C-260.20088206 528.09579519 -260.20722773 486.36890072 -260.19796576 444.64198645 C-260.19700367 440.19019247 -260.19606515 435.73839848 -260.19513656 431.28660449 C-260.19489933 430.19053694 -260.1946621 429.0944694 -260.19441768 427.96518768 C-260.19101171 411.44608086 -260.19498405 394.92698645 -260.20257522 378.40788134 C-260.21116779 359.61647798 -260.20897701 340.8251098 -260.19273299 322.0337108 C-260.18395105 311.52936022 -260.18331003 301.02508592 -260.19467151 290.52073738 C-260.20143415 283.49028511 -260.1971484 276.45989356 -260.18415721 269.42945023 C-260.17707129 265.43320766 -260.174474 261.43711579 -260.18537516 257.44087835 C-260.23975763 235.93392583 -259.43052075 214.78564913 -254.10618927 193.82563647 C-253.85345245 192.80542407 -253.60071563 191.78521167 -253.34032013 190.73408374 C-242.16713975 146.96490434 -220.95606693 108.98219165 -189.79368927 76.26313647 C-189.22344024 75.66420581 -188.65319122 75.06527514 -188.06566192 74.44819506 C-179.53605728 65.55601911 -170.71798255 57.56205912 -160.79368927 50.26313647 C-160.22295685 49.83694018 -159.65222442 49.41074389 -159.06419708 48.97163256 C-150.321304 42.45514458 -141.25417686 36.67734626 -131.79368927 31.26313647 C-130.67091583 30.60700366 -129.54814239 29.95087084 -128.39134552 29.27485522 C-107.07495831 17.30986398 -83.48747992 9.63164658 -59.66868927 4.51313647 C-58.75208526 4.31421801 -57.83548126 4.11529956 -56.89110138 3.91035327 C-37.99726701 0.06023281 -19.18949675 -0.03045658 0 0 Z " fill="#FDFDFD" transform="translate(259.79368926770985,-0.26313646975904703)"/>
<path d="M0 0 C0 23.76 0 47.52 0 72 C-12.7011963 71.0229849 -25.6758266 69.62704678 -35 60 C-38.58704931 55.54575196 -41.12596943 51.71636085 -42 46 C-42.66 46 -43.32 46 -44 46 C-43.69555186 60.05996884 -37.84130852 71.89433116 -28.375 82.125 C-16.69314088 93.19086655 0.56623605 99.009261 16.56640625 99.17700195 C17.66577515 99.18967102 18.76514404 99.20234009 19.89782715 99.21539307 C21.10716919 99.22294617 22.31651123 99.23049927 23.5625 99.23828125 C25.53168396 99.25263214 25.53168396 99.25263214 27.54064941 99.26727295 C32.02708506 99.29511548 36.51349109 99.3048916 41 99.3125 C42.17316269 99.31533052 42.17316269 99.31533052 43.37002563 99.31821823 C84.43790822 99.40777814 125.47069632 97.93353403 166.5078125 96.51098633 C171.70311386 96.33121888 176.8984273 96.15180584 182.09375 95.97265625 C183.36323738 95.92871609 184.63272476 95.88477592 185.94068146 95.83950424 C208.83480224 95.05196337 231.72780575 94.55824351 254.63145065 94.15623665 C268.15467832 93.91437521 281.67369146 93.53011374 295.19284058 93.12402344 C297.33369715 93.05999687 299.47458302 92.99703703 301.61547852 92.93432617 C321.99898472 92.33650449 342.37793769 91.65067015 362.75558472 90.87628174 C376.87319401 90.34059275 390.99134204 89.86816444 405.11328125 89.46484375 C406.27746141 89.43154402 406.27746141 89.43154402 407.46516037 89.39757156 C415.14612399 89.17839103 422.82719407 88.96353455 430.50848579 88.7561655 C434.03304774 88.66072368 437.55755578 88.56342501 441.08203125 88.46484375 C442.09286459 88.43662631 442.09286459 88.43662631 443.1241188 88.40783882 C451.38346577 88.1740269 459.62413577 87.84167317 467.87068176 87.33270264 C475.59107521 86.87249717 483.31096464 86.74271044 491.04394531 86.70483398 C492.69572419 86.6931763 494.3474616 86.6725146 495.99902344 86.64331055 C508.68424289 86.42095897 518.62382531 87.01543454 528.30859375 96.1328125 C533.89138062 102.29579661 535.12734647 108.12027788 535.11352539 116.24707031 C535.11367142 116.96941864 535.11381744 117.69176697 535.1139679 118.43600464 C535.11327284 120.81674228 535.1054995 123.19740108 535.09765625 125.578125 C535.09579063 127.23150591 535.0943674 128.88488738 535.09336853 130.53826904 C535.08955473 134.88494397 535.07973415 139.23158537 535.06866455 143.57824707 C535.05842599 148.01570177 535.05386567 152.45316189 535.04882812 156.890625 C535.03811086 165.59376537 535.02104809 174.29687851 535 183 C515.68982859 183.75397989 496.38959379 184.24703845 477.06738281 184.55224609 C464.67842791 184.75147833 452.29351529 185.00792384 439.91015625 185.4375 C438.84691132 185.47065308 437.78366638 185.50380615 436.6882019 185.53796387 C416.02531969 186.31155001 396.99726662 193.82910557 381 207 C380.37351562 207.47695313 379.74703125 207.95390625 379.1015625 208.4453125 C363.28805855 220.96731789 349.70743322 244.5264258 347.20361328 264.78320312 C344.6628483 292.44524877 350.63749066 318.48232354 368.54296875 340.2109375 C369.35378906 341.13132812 370.16460938 342.05171875 371 343 C372.07701172 344.22589844 372.07701172 344.22589844 373.17578125 345.4765625 C387.04735681 360.23571602 407.93177651 371.17229776 428.32275391 372.16113281 C432.4237219 372.20826408 436.52376264 372.24526778 440.625 372.25 C441.39131744 372.25167175 442.15763489 372.25334351 442.94717407 372.25506592 C458.50770335 372.25707251 473.8598179 371.04209983 489.34083557 369.59342957 C497.44652231 368.84552777 505.56340074 368.31399787 513.6875 367.8125 C515.65529419 367.68705811 515.65529419 367.68705811 517.6628418 367.55908203 C524.12307914 367.16519095 530.52917544 366.95649608 537 367 C537.11661122 377.28463396 537.2050752 387.56910683 537.25906086 397.85427094 C537.28499076 402.63176574 537.3200792 407.40880336 537.37719727 412.18603516 C537.4321173 416.809142 537.46154486 421.43181329 537.47438622 426.05522156 C537.48351981 427.80603377 537.50135049 429.55682616 537.52865028 431.30744934 C537.81290374 450.31722005 533.67840399 466.45476726 520.390625 480.64453125 C516.83327458 484.14956769 513.11435094 487.17500552 509 490 C508.02546875 490.69222656 508.02546875 490.69222656 507.03125 491.3984375 C493.45460207 500.01438715 475.37407474 499.86664923 459.875 500.6875 C456.85118976 500.86077941 453.82766395 501.03825675 450.80422974 501.2179718 C448.94241605 501.3272676 447.08033859 501.43219381 445.21798706 501.53190613 C440.42513357 501.79875297 435.75164097 502.2869996 431 503 C429.32470161 503.12154371 427.64724441 503.2175783 425.96875 503.28125 C425.07542969 503.31863281 424.18210937 503.35601563 423.26171875 503.39453125 C421.42057292 503.46484375 419.57942708 503.53515625 417.73828125 503.60546875 C412.75360609 503.81406266 407.94212198 504.29076609 403 505 C399.87729901 505.19028268 396.75171216 505.27464648 393.625 505.375 C384.00328139 505.73902031 374.45384704 506.56857392 364.875 507.5 C354.9093238 508.46405152 345.01498772 509.20310667 335 509.4375 C322.7433656 509.75295415 310.58717074 510.70477425 298.375 511.75 C277.63779865 513.51877699 256.89117861 515.00098745 236.125 516.375 C229.75512173 516.79687932 223.38530762 517.21970738 217.015625 517.64453125 C215.80187195 517.72545423 215.80187195 517.72545423 214.56359863 517.80801201 C201.7214738 518.66600188 188.88338733 519.57364926 176.046875 520.51171875 C175.17353264 520.57552734 174.30019028 520.63933594 173.400383 520.70507812 C168.10502441 521.09223788 162.80974694 521.48050041 157.51448059 521.86891937 C128.59599873 523.98981311 99.67481521 525.98005058 70.72998047 527.70727539 C68.32778165 527.85142839 65.92560013 527.99587006 63.5234375 528.140625 C62.38058792 528.20928772 61.23773834 528.27795044 60.06025696 528.34869385 C52.26370931 528.8289773 44.48285426 529.43506983 36.69921875 530.08984375 C27.59564315 530.84715835 18.57831429 531.3570025 9.4375 531.3125 C8.17083496 531.30686035 6.90416992 531.3012207 5.59912109 531.29541016 C-22.54232678 530.93003077 -47.98534627 520.01465373 -68 500 C-83.42278171 482.90989054 -97.09703446 459.87092228 -97.13422108 436.29560947 C-97.13867892 434.97829918 -97.14313676 433.66098889 -97.14772969 432.30376011 C-97.14764041 430.85367555 -97.1474506 429.403591 -97.14717102 427.95350647 C-97.15047316 426.4038175 -97.15419947 424.85412938 -97.1583125 423.30444235 C-97.16830074 419.05275297 -97.17204416 414.80107771 -97.17470181 410.54937828 C-97.1786143 405.96087096 -97.18819194 401.37237473 -97.19691467 396.78387451 C-97.21665212 385.70616091 -97.2267417 374.62844643 -97.23564246 363.55071965 C-97.2400297 358.32923219 -97.24539537 353.10774574 -97.25063133 347.88625908 C-97.26764066 330.52083707 -97.2821339 313.15541567 -97.28938007 295.78998661 C-97.29128985 291.28634198 -97.2932102 286.78269735 -97.29516602 282.27905273 C-97.29564976 281.15974644 -97.2961335 280.04044015 -97.2966319 278.88721549 C-97.30492878 260.76306448 -97.33026128 242.63897953 -97.36274669 224.51485736 C-97.39585301 205.89195281 -97.41383205 187.26908179 -97.41702431 168.64614767 C-97.41918606 158.19625241 -97.42788568 147.74645351 -97.45348549 137.29658699 C-97.4752413 128.39549871 -97.48321893 119.49453022 -97.47351871 110.59341837 C-97.46898818 106.05672193 -97.47078722 101.52027239 -97.49028015 96.98361015 C-97.50801435 92.82007744 -97.50683196 88.65696985 -97.49138286 84.49343198 C-97.48902224 82.9973989 -97.49324886 81.50133557 -97.50521151 80.00534845 C-97.66390588 58.82623168 -91.23914467 40.81501839 -77 25 C-76.40960938 24.31679688 -75.81921875 23.63359375 -75.2109375 22.9296875 C-55.03319107 1.03468606 -28.61113722 0 0 0 Z " fill="#2172FC" transform="translate(389,464)"/>
<path d="M0 0 C5.48934269 2.42777191 9.68663958 6.20088682 12.68359375 11.3828125 C14.50655071 16.40393957 15.80766149 21.48497925 17.0390625 26.67871094 C17.72793367 29.56883864 18.45230613 32.44844798 19.18359375 35.328125 C20.18586721 39.28373109 21.17838919 43.24141312 22.15625 47.203125 C25.10213015 59.12775401 28.10144032 71.03731693 31.14453125 82.9375 C31.9524585 86.10032787 32.76034407 89.26316638 33.56809711 92.42603874 C34.39129849 95.64865339 35.21581285 98.87092014 36.04199219 102.09277344 C39.77615948 116.66012935 43.42422531 131.23482401 46.72409058 145.90756226 C48.02810482 151.68278477 49.45700431 157.38844085 51.12109375 163.0703125 C53.52785716 171.43397084 55.46442799 179.89424567 57.37109375 188.3828125 C57.52166229 189.05202728 57.67223083 189.72124207 57.82736206 190.41073608 C59.54180368 198.04973588 61.19709967 205.69599903 62.68359375 213.3828125 C63.47076847 176.24431266 59.41949119 140.25791275 50.36914062 104.15966797 C49.02261792 98.70548376 47.76299385 93.2309294 46.49609375 87.7578125 C46.12109741 86.15740112 46.12109741 86.15740112 45.73852539 84.5246582 C44.1890533 77.84063019 42.84525196 71.14505357 41.68359375 64.3828125 C46.42650048 65.21817607 50.16471414 66.8535606 54.43359375 69.0078125 C55.14443115 69.36609131 55.85526855 69.72437012 56.58764648 70.09350586 C62.13986216 72.96372442 67.03485655 76.18050935 71.68359375 80.3828125 C72.27011719 80.88941406 72.85664062 81.39601563 73.4609375 81.91796875 C86.80025484 94.22885799 95.36065309 112.39230617 96.68359375 130.3828125 C96.82573137 134.98521626 96.82715735 139.58488545 96.82403564 144.18922424 C96.8266235 145.57977201 96.82963783 146.97031904 96.83303905 148.36086506 C96.84106288 152.16337681 96.84289602 155.96586965 96.84363651 159.76838887 C96.84549515 163.87696465 96.8530465 167.98553079 96.85977173 172.09410095 C96.87332256 181.06956133 96.87937465 190.04501722 96.88378239 199.02048612 C96.88655023 204.63072825 96.89078855 210.24096867 96.89528656 215.85120964 C96.90747481 231.40153298 96.91777511 246.95185495 96.92116165 262.50218296 C96.92138122 263.49639448 96.92160078 264.490606 96.921827 265.51494515 C96.92204528 266.51145732 96.92226356 267.50796949 96.92248845 268.534679 C96.92293191 270.55379967 96.92337847 272.57292034 96.92382812 274.59204102 C96.92404955 275.59358233 96.92427098 276.59512364 96.92449912 277.62701469 C96.9284451 293.84663566 96.94589499 310.06621164 96.96918765 326.28581525 C96.99293965 342.9606422 97.00536525 359.63544662 97.00652957 376.31029075 C97.00744415 385.66355113 97.01314163 395.01675287 97.03134918 404.36999702 C97.04680219 412.33595244 97.05184008 420.3018311 97.04361108 428.26779867 C97.03972296 432.3265103 97.04054347 436.3850676 97.05466843 440.44375992 C97.06751853 444.17046248 97.06611401 447.89689651 97.05407771 451.62359928 C97.0512325 453.58672966 97.06297164 455.54986517 97.07549977 457.51295763 C96.92997126 484.09504734 87.18207751 507.34937423 68.68359375 526.3828125 C53.87323053 540.29421589 33.01241399 549.89451017 12.51953125 549.453125 C11.61074219 549.41832031 11.61074219 549.41832031 10.68359375 549.3828125 C11.94133948 545.29813353 13.49355425 541.7420031 15.55859375 538.0078125 C22.58282177 523.98865342 23.28604087 510.14350428 23.29296875 494.7890625 C23.30798861 492.86135496 23.32472356 490.93366011 23.34307861 489.00598145 C23.38633769 483.9887424 23.40665811 478.97167677 23.42181396 473.95428467 C23.44153629 468.81186846 23.48348806 463.66963555 23.5234375 458.52734375 C23.59828938 448.47922379 23.64885166 438.43114574 23.68359375 428.3828125 C29.47063589 427.30147425 35.23779574 426.22995856 41.0859375 425.53125 C42.16037109 425.40234375 43.23480469 425.2734375 44.34179688 425.140625 C45.96504883 424.95113281 45.96504883 424.95113281 47.62109375 424.7578125 C48.73033203 424.62375 49.83957031 424.4896875 50.98242188 424.3515625 C55.25897821 423.84448141 59.37164173 423.3828125 63.68359375 423.3828125 C63.68359375 414.1428125 63.68359375 404.9028125 63.68359375 395.3828125 C60.73421875 395.8159375 57.78484375 396.2490625 54.74609375 396.6953125 C24.87772317 400.83898001 -5.34532478 402.48001186 -35.40356445 404.65522766 C-44.42007154 405.31036733 -53.43358151 406.00192647 -62.44566345 406.71534729 C-121.60398847 411.34246672 -121.60398847 411.34246672 -143.31640625 393.3828125 C-153.03195558 385.0356504 -158.44212397 375.15131667 -162.37109375 363.15625 C-163.04713112 360.50503086 -163.04713112 360.50503086 -164.31640625 359.3828125 C-167.63258192 340.24919462 -164.45609026 322.3050817 -153.31640625 306.3828125 C-142.39795833 292.55653051 -128.90432337 282.64257927 -111.31640625 279.3828125 C-102.4187217 278.39114503 -93.44316438 278.32965412 -84.49975967 278.17186737 C-80.98863254 278.1052478 -77.47816288 278.0127103 -73.9675293 277.92431641 C-65.82564369 277.72531416 -57.68318899 277.57106611 -49.5402298 277.42375183 C-46.61525496 277.3699047 -43.69035875 277.31236475 -40.76545906 277.25459957 C-5.94987138 276.56735425 28.86065706 276.2200885 63.68359375 276.3828125 C63.68359375 266.4828125 63.68359375 256.5828125 63.68359375 246.3828125 C50.15359375 246.3828125 36.62359375 246.3828125 22.68359375 246.3828125 C22.6578125 241.35933594 22.63203125 236.33585938 22.60546875 231.16015625 C22.58025484 227.94721708 22.55388724 224.73436785 22.5234375 221.52148438 C22.47538298 216.43969578 22.43123472 211.35811582 22.41259766 206.27612305 C22.39727468 202.17150723 22.3625597 198.06744327 22.31528473 193.96307564 C22.30063 192.40972294 22.29256206 190.85629139 22.2917099 189.3028698 C22.27131824 170.74179961 18.06599968 152.16394933 4.68359375 138.3828125 C-2.61546596 131.93124884 -10.11349411 127.51598018 -19.31640625 124.3828125 C-20.20972656 124.06441406 -21.10304688 123.74601563 -22.0234375 123.41796875 C-29.50521503 121.04088863 -36.54983813 121.11810161 -44.31640625 121.3828125 C-45.23457123 121.41329178 -46.15273621 121.44377106 -47.09872437 121.47517395 C-62.29572925 121.98747797 -77.47028566 122.68814053 -92.64996338 123.56887817 C-128.76180453 125.64175826 -164.90508967 126.87721684 -201.05278873 128.12855434 C-206.43077838 128.31539334 -211.80848438 128.50895364 -217.18603516 128.70800781 C-251.57657478 129.98069304 -285.90099161 130.68572407 -320.31640625 130.3828125 C-318.01299317 128.07939942 -316.76897976 127.80437048 -313.65234375 127.015625 C-312.70351318 126.77199219 -311.75468262 126.52835938 -310.77709961 126.27734375 C-309.7588208 126.02339844 -308.74054199 125.76945313 -307.69140625 125.5078125 C-306.6454126 125.24097656 -305.59941895 124.97414063 -304.52172852 124.69921875 C-298.77180615 123.23622859 -293.01301727 121.80910638 -287.25390625 120.3828125 C-273.25810022 116.89831947 -259.3382747 113.21878544 -245.69140625 108.53515625 C-236.86055755 105.51999379 -227.90323784 102.94683944 -218.8984375 100.5078125 C-215.16828962 99.33629386 -211.61020763 97.91995461 -207.99243164 96.44482422 C-204.40526094 95.02121391 -200.7688392 93.76184693 -197.12475586 92.49267578 C-157.6406308 78.68883775 -119.35219811 60.85638079 -83.13037109 39.99707031 C-80.38370622 38.42141977 -77.6275313 36.86403971 -74.8671875 35.3125 C-65.61323796 30.09814778 -56.52778774 24.70328307 -47.58276367 18.97485352 C-41.25788559 14.93751389 -34.84065755 11.07185285 -28.37890625 7.2578125 C-27.43668213 6.70101807 -26.49445801 6.14422363 -25.52368164 5.57055664 C-16.89492126 0.49894261 -10.29849015 -2.74394847 0 0 Z " fill="#1C70FD" transform="translate(931.31640625,399.6171875)"/>
<path d="M0 0 C7.64009146 4.23688181 11.59914138 9.58274162 13.98828125 17.88671875 C14.34684898 22.44515049 14.3178172 27.00138526 14.30395508 31.57177734 C14.30079985 33.74888425 14.32427325 35.92462358 14.34960938 38.1015625 C14.40073685 48.48953312 13.68971286 56.08697099 5.98828125 63.88671875 C3.73406289 65.61172222 1.3683611 67.06951498 -1.07421875 68.51171875 C-1.76467285 68.93066406 -2.45512695 69.34960938 -3.16650391 69.78125 C-4.65935775 70.68484558 -6.15523963 71.58345371 -7.65380859 72.47753906 C-10.06911941 73.92102364 -12.47276972 75.38252037 -14.875 76.84765625 C-34.45813721 88.7527895 -54.57436708 99.52121033 -75.01171875 109.88671875 C-76.5423999 110.66523193 -76.5423999 110.66523193 -78.10400391 111.45947266 C-120.95776846 133.09282007 -166.08906065 150.34515097 -211.53125 165.6796875 C-216.39802814 167.32442543 -221.21732859 169.04230153 -226.01171875 170.88671875 C-233.08336161 173.59591526 -240.2100879 175.87272829 -247.48364258 177.96264648 C-252.08382999 179.29264467 -256.61182447 180.75209513 -261.13671875 182.32421875 C-278.61096212 188.21648206 -296.75192624 192.09044582 -314.72314453 196.13232422 C-317.91981102 196.86563524 -321.10439619 197.63827096 -324.2890625 198.421875 C-362.46165979 207.65926723 -399.8730757 208.6080493 -439.01171875 207.88671875 C-438.51671875 206.89671875 -438.51671875 206.89671875 -438.01171875 205.88671875 C-436.2878418 205.44775391 -436.2878418 205.44775391 -434.0234375 205.17578125 C-433.18184082 205.0675 -432.34024414 204.95921875 -431.47314453 204.84765625 C-430.55774902 204.73679687 -429.64235352 204.6259375 -428.69921875 204.51171875 C-418.93772762 203.22823558 -409.34557425 201.47401553 -399.71508789 199.44360352 C-397.71703594 199.03201167 -395.71565937 198.63648424 -393.71264648 198.24975586 C-383.66269336 196.30134337 -373.74263651 193.97694708 -363.82421875 191.44921875 C-362.99298492 191.23828583 -362.1617511 191.02735291 -361.30532837 190.81002808 C-344.75558622 186.58216405 -328.61279824 181.36280229 -312.48565674 175.75546265 C-308.0213558 174.2095718 -303.52973079 172.81770519 -298.99584961 171.4934082 C-296.48324361 170.72512644 -294.1016489 169.76057944 -291.69921875 168.69921875 C-285.03598232 165.84478543 -278.26904862 163.29161162 -271.48510742 160.74145508 C-270.18923706 160.25261841 -270.18923706 160.25261841 -268.8671875 159.75390625 C-267.71706177 159.32247314 -267.71706177 159.32247314 -266.54370117 158.88232422 C-260.90824095 156.66639453 -255.39735916 154.17836761 -249.91015625 151.62109375 C-249.24437057 151.31121521 -248.5785849 151.00133667 -247.8926239 150.68206787 C-220.12880337 137.73076884 -193.14080025 123.91641252 -167.01171875 107.88671875 C-166.11743164 107.33886719 -165.22314453 106.79101562 -164.30175781 106.2265625 C-152.27795342 98.82587148 -140.59302753 90.95891577 -129.01171875 82.88671875 C-128.29274414 82.38672363 -127.57376953 81.88672852 -126.83300781 81.37158203 C-109.16245053 69.06225722 -91.93775356 56.19873992 -75.01171875 42.88671875 C-73.8099105 41.94268966 -72.60808843 40.99867817 -71.40625 40.0546875 C-69.71486129 38.72575646 -68.02389235 37.39630916 -66.33422852 36.06518555 C-63.13545391 33.54692333 -59.9265259 31.04251375 -56.70703125 28.55078125 C-55.18351273 27.37119839 -53.66007645 26.1915093 -52.13671875 25.01171875 C-51.38011963 24.42583984 -50.62352051 23.83996094 -49.84399414 23.23632812 C-45.34922726 19.74290155 -40.90832008 16.19363868 -36.51098633 12.57836914 C-33.9060156 10.44102844 -31.28085336 8.32947516 -28.65234375 6.22119141 C-27.26001496 5.08868112 -25.89790346 3.91917983 -24.54296875 2.7421875 C-17.52702916 -2.84700318 -8.27937827 -3.06047057 0 0 Z " fill="#1F70FC" transform="translate(865.01171875,332.11328125)"/>
<path d="M0 0 C0.65404312 -0.00671722 1.30808624 -0.01343445 1.98194885 -0.02035522 C4.14453734 -0.03935474 6.30681566 -0.04326065 8.46948242 -0.04541016 C9.97539904 -0.05183791 11.4813144 -0.05856625 12.98722839 -0.06558228 C16.14548638 -0.07756073 19.30363496 -0.08126264 22.46191406 -0.08007812 C26.50050097 -0.07987517 30.53838235 -0.10715003 34.57680225 -0.14162254 C37.68844292 -0.16391129 40.79991451 -0.16791504 43.91162682 -0.16685867 C45.39992384 -0.16921272 46.88822567 -0.17802525 48.37644386 -0.19352341 C50.46369708 -0.21322032 52.54943883 -0.20733246 54.63671875 -0.1953125 C55.82235916 -0.19816254 57.00799957 -0.20101257 58.22956848 -0.20394897 C62.22893282 0.39844567 64.37522846 1.77967642 67.51245117 4.29052734 C69.64820971 7.49416515 69.79823942 8.5202085 69.94810486 12.23095703 C69.99276382 13.25097809 70.03742279 14.27099915 70.08343506 15.32192993 C70.12180481 16.44078583 70.16017456 17.55964172 70.19970703 18.71240234 C70.24658157 19.89176361 70.29345612 21.07112488 70.3417511 22.28622437 C70.75136097 33.20558229 70.99421182 44.1299924 71.17926693 55.05526733 C71.3062793 62.38994771 71.48806286 69.71452031 71.81005859 77.04345703 C73.99407051 127.74542256 73.99407051 127.74542256 65.0564394 137.60998344 C58.9258007 143.20058771 51.76625615 146.36016005 43.9924469 149.01434326 C39.03424079 150.83261668 34.99192078 153.58467788 30.69995117 156.60302734 C19.8489325 163.50764017 8.67536565 169.90735878 -2.48754883 176.29052734 C-3.35863281 176.79213379 -4.2297168 177.29374023 -5.12719727 177.81054688 C-5.93447266 178.26929199 -6.74174805 178.72803711 -7.57348633 179.20068359 C-8.2829541 179.60552979 -8.99242187 180.01037598 -9.72338867 180.42749023 C-11.48754883 181.29052734 -11.48754883 181.29052734 -13.48754883 181.29052734 C-13.58098113 158.83779363 -13.65152267 136.38509196 -13.69479752 113.93220329 C-13.71542466 103.50698219 -13.74354824 93.08188186 -13.78930664 82.65673828 C-13.82916966 73.57041122 -13.85498053 64.48417163 -13.86390281 55.39775956 C-13.86911845 50.58633035 -13.88138034 45.77515137 -13.91046906 40.96380234 C-13.93762966 36.43464945 -13.94599251 31.90584975 -13.93997955 27.37662315 C-13.9410795 25.71496473 -13.94902964 24.05329443 -13.96437073 22.39170647 C-13.98430953 20.12063972 -13.9794749 17.85090175 -13.96856689 15.57980347 C-13.97225407 14.30957273 -13.97594124 13.039342 -13.97974014 11.73061943 C-13.39282368 7.62846113 -12.07522436 5.49228733 -9.48754883 2.29052734 C-5.89773576 -0.10268137 -4.26781217 0.02749713 0 0 Z " fill="#1D70FC" transform="translate(673.487548828125,256.70947265625)"/>
<path d="M0 0 C0.65564941 -0.00511093 1.31129883 -0.01022186 1.98681641 -0.01548767 C4.154227 -0.02938721 6.32131966 -0.02842644 8.48876953 -0.02612305 C9.99708169 -0.03001032 11.50539275 -0.03434506 13.01370239 -0.03910828 C16.17616319 -0.04657164 19.33851237 -0.0462788 22.50097656 -0.04101562 C26.54851727 -0.03522646 30.59559956 -0.05213764 34.6430645 -0.0753603 C37.75894837 -0.09011303 40.87472231 -0.09096717 43.99063492 -0.08785057 C45.48253409 -0.0883632 46.97443952 -0.09359 48.46630478 -0.10366249 C50.55596161 -0.11603741 52.64473173 -0.10922955 54.734375 -0.09765625 C55.92223602 -0.09828568 57.11009705 -0.0989151 58.33395386 -0.0995636 C62.67665431 0.41429168 65.2147378 1.8380459 68.11558819 5.08914089 C69.72405821 7.63465483 69.86747769 8.98407132 69.85734558 11.96966553 C69.86146957 12.90913528 69.86559357 13.84860504 69.86984253 14.81654358 C69.8590567 15.84009445 69.84827087 16.86364532 69.8371582 17.91821289 C69.83781532 19.54305855 69.83781532 19.54305855 69.83848572 21.20072937 C69.83639492 24.78284703 69.81304946 28.36449726 69.78955078 31.9465332 C69.78395588 34.4294611 69.77968528 36.91239231 69.77668762 39.39532471 C69.76640176 45.26369844 69.74275516 51.13189946 69.71263915 57.00020242 C69.67580137 64.33775434 69.65970102 71.67531615 69.64306641 79.01293945 C69.61088712 92.10026431 69.56025646 105.18745063 69.49658203 118.2746582 C37.18047058 132.38812902 37.18047058 132.38812902 24.12158203 137.3996582 C22.98849609 137.84051758 21.85541016 138.28137695 20.68798828 138.7355957 C17.62744457 139.92401736 14.56348119 141.10275145 11.49658203 142.2746582 C10.74328613 142.56284424 9.98999023 142.85103027 9.21386719 143.14794922 C4.71490798 144.85319109 0.1846637 146.43959769 -4.37841797 147.9621582 C-5.37228516 148.29957031 -5.37228516 148.29957031 -6.38623047 148.64379883 C-11.26393754 150.2746582 -11.26393754 150.2746582 -13.50341797 150.2746582 C-13.59685145 131.71617331 -13.66739231 113.15773613 -13.71066666 94.59906483 C-13.7312936 85.98197887 -13.75941663 77.36503904 -13.80517578 68.74804688 C-13.84503961 61.23763468 -13.87084983 53.72732831 -13.87977195 46.21681327 C-13.88498751 42.23985074 -13.8972484 38.26319097 -13.9263382 34.28632545 C-13.95350033 30.54263861 -13.9618615 26.79937905 -13.95584869 23.05560303 C-13.9574728 21.0275884 -13.97899143 18.99962025 -14.00109863 16.97172546 C-13.99559998 15.76162811 -13.99010132 14.55153076 -13.98443604 13.30476379 C-13.98812321 12.25484159 -13.99181038 11.20491938 -13.99560928 10.12318134 C-13.37322178 6.52115679 -12.01176312 4.88843489 -9.50341797 2.2746582 C-5.90660877 -0.1232146 -4.27648199 0.01660957 0 0 Z " fill="#1F71FC" transform="translate(557.50341796875,337.725341796875)"/>
<path d="M0 0 C0.65389709 -0.0065712 1.30779419 -0.0131424 1.98150635 -0.01991272 C4.14945591 -0.03965136 6.3173361 -0.05131086 8.48535156 -0.0612793 C9.22624275 -0.06535482 9.96713394 -0.06943035 10.73047638 -0.07362938 C14.65364809 -0.0944948 18.57678479 -0.10879315 22.5 -0.11816406 C26.54642069 -0.12921598 30.59228955 -0.16359973 34.63851547 -0.20333576 C37.75442504 -0.22952424 40.87020374 -0.23785795 43.98621368 -0.24144554 C45.47731493 -0.24630757 46.96841049 -0.25791075 48.45940399 -0.27648354 C50.55150069 -0.30091931 52.64217831 -0.29990278 54.734375 -0.29296875 C55.92303162 -0.29883499 57.11168823 -0.30470123 58.33636475 -0.31074524 C62.34398901 0.28346088 64.48459632 1.66074164 67.62597656 4.17700195 C70.21520866 8.0608501 69.89198957 11.27768655 69.85302734 15.77929688 C69.8533194 16.6575563 69.85361145 17.53581573 69.85391235 18.44068909 C69.85251796 21.34638313 69.83695156 24.2518214 69.82128906 27.1574707 C69.81755932 29.17100382 69.81471217 31.18453876 69.81271362 33.19807434 C69.8050741 38.49995934 69.78542282 43.80173492 69.76330566 49.10357666 C69.74285414 54.51280232 69.73371339 59.92204565 69.72363281 65.33129883 C69.70217727 75.9465813 69.66803743 86.56178253 69.62597656 97.17700195 C67.3942992 97.81482093 65.16260684 98.45258748 62.9309082 99.09033203 C61.68813614 99.44549393 60.44536407 99.80065582 59.16493225 100.1665802 C45.13043977 104.17362571 31.03333052 107.88669016 16.86160278 111.37661743 C15.21983616 111.78143025 13.57860764 112.18843247 11.93795776 112.5977478 C9.60128533 113.17950892 7.26246518 113.7517301 4.92285156 114.3215332 C4.2349202 114.49419708 3.54698883 114.66686096 2.83821106 114.84475708 C-0.98131994 115.76267584 -4.72190081 116.36042911 -8.63543701 116.7297821 C-9.52582043 116.81497447 -10.41620384 116.90016684 -11.33356857 116.98794079 C-12.00691868 117.05033097 -12.68026878 117.11272116 -13.37402344 117.17700195 C-13.49092239 102.93850962 -13.57871087 88.7000919 -13.6330843 74.46121788 C-13.65918056 67.84954564 -13.69458056 61.23819572 -13.7512207 54.62670898 C-13.8055373 48.2465358 -13.83544375 41.86667271 -13.84840965 35.48628616 C-13.85764999 33.05178572 -13.87569419 30.61730229 -13.90267372 28.18293381 C-13.93895755 24.77351932 -13.94396881 21.36538697 -13.94165039 17.95581055 C-13.95962677 16.94880096 -13.97760315 15.94179138 -13.99612427 14.90426636 C-13.96274169 10.3689308 -13.87943365 7.1819808 -10.96354675 3.56582642 C-7.10140425 0.00301606 -5.18176582 0.04302951 0 0 Z " fill="#2072FC" transform="translate(440.3740234375,402.822998046875)"/>
<path d="M0 0 C0.33 0 0.66 0 1 0 C1.14695312 0.98097656 1.29390625 1.96195313 1.4453125 2.97265625 C4.27180953 20.49868934 10.23667449 36.31362056 24.26171875 48.0859375 C37.9764904 57.67258245 52.60067958 60.93795527 69 63 C66.2342284 65.7657716 63.46712879 65.49213251 59.75 65.8125 C41.90803441 67.72198108 26.78847864 75.71902065 15.02734375 89.2734375 C5.82079321 101.45441206 2.92957805 115.22349438 1 130 C-0.77465587 126.88707904 -1.33440496 124.292453 -1.75 120.75 C-4.34192889 104.50592656 -11.69579606 88.71065469 -25.19921875 78.77734375 C-38.69201884 70.21496712 -52.45239091 66.7198671 -68 64 C-68 63.67 -68 63.34 -68 63 C-67.43192627 62.90501221 -66.86385254 62.81002441 -66.27856445 62.7121582 C-46.31046214 59.31114209 -27.16457985 54.75101515 -14 38 C-8.03557637 28.34307635 -3.55713619 17.61629351 -1.3125 6.5 C-1.06113281 5.2728125 -0.80976562 4.045625 -0.55078125 2.78125 C-0.36902344 1.8634375 -0.18726563 0.945625 0 0 Z " fill="#1E70FC" transform="translate(825,175)"/>
<path d="M0 0 C5.80591776 4.03756605 9.69591336 8.78882937 13 15 C13.36609375 15.58136719 13.7321875 16.16273438 14.109375 16.76171875 C16.78198389 23.47840689 15.89146983 33.71810468 13.5 40.4375 C9.05591872 49.66751496 2.41202726 55.25525026 -7 59 C-13.97925786 61.32641929 -22.9564592 60.94100149 -29.8125 58.21875 C-38.65454955 53.29246525 -45.16230414 45.73870719 -48 36 C-49.34475464 27.46479934 -49.17705563 18.69082861 -44.61328125 11.14453125 C-33.86460306 -3.14366324 -16.51456705 -9.58636683 0 0 Z " fill="#FAFBFD" transform="translate(865,715)"/>
<path d="M0 0 C0.33 0 0.66 0 1 0 C1 23.76 1 47.52 1 72 C-1.31 72 -3.62 72 -6 72 C-5.67 71.01 -5.34 70.02 -5 69 C-3.35 69 -1.7 69 0 69 C0 46.23 0 23.46 0 0 Z " fill="#3A84FD" transform="translate(388,464)"/>
<path d="M0 0 C-0.33 1.98 -0.66 3.96 -1 6 C-5.74157391 7.41218473 -9.59839796 6.55250356 -14.3125 5.5625 C-15.42334961 5.34110352 -15.42334961 5.34110352 -16.55664062 5.11523438 C-18.37281643 4.75199921 -20.18666411 4.37715682 -22 4 C-22 3.67 -22 3.34 -22 3 C-19.27172635 2.49465273 -16.54255306 1.99556155 -13.8125 1.5 C-13.04357422 1.35691406 -12.27464844 1.21382812 -11.48242188 1.06640625 C-7.60578227 0.36761285 -3.958529 -0.19039017 0 0 Z " fill="#3982FA" transform="translate(779,235)"/>
<path d="M0 0 C-1.01953125 1.48828125 -1.01953125 1.48828125 -3 3 C-5.64996326 3.2172101 -8.05076558 3.28351554 -10.6875 3.1875 C-11.38939453 3.17396484 -12.09128906 3.16042969 -12.81445312 3.14648438 C-14.54329829 3.11120182 -16.27174765 3.05739583 -18 3 C-18.33 2.34 -18.66 1.68 -19 1 C-12.36801431 -0.93833398 -6.81402575 -1.05268874 0 0 Z " fill="#2E7EFC" transform="translate(462,535)"/>
<path d="M0 0 C0 0.33 0 0.66 0 1 C-3.5824379 1.22624982 -7.16585101 1.42787181 -10.75 1.625 C-11.76578125 1.68945312 -12.7815625 1.75390625 -13.828125 1.8203125 C-15.29765625 1.89765625 -15.29765625 1.89765625 -16.796875 1.9765625 C-17.69760742 2.02893066 -18.59833984 2.08129883 -19.52636719 2.13525391 C-22.18916947 1.98965654 -23.73072479 1.35693395 -26 0 C-17.40104632 -1.56344612 -8.59895368 -1.56344612 0 0 Z " fill="#3A83FC" transform="translate(428,993)"/>
<path d="M0 0 C5.28 0.66 10.56 1.32 16 2 C13.26949638 4.73050362 11.37015426 4.4613484 7.5625 4.75 C6.40878906 4.84796875 5.25507812 4.9459375 4.06640625 5.046875 C1 5 1 5 -2 3 C-1.34 3 -0.68 3 0 3 C0 2.01 0 1.02 0 0 Z " fill="#4589FC" transform="translate(878,236)"/>
<path d="M0 0 C0.66 0 1.32 0 2 0 C3.32 3.3 4.64 6.6 6 10 C5.01 10.33 4.02 10.66 3 11 C2.34 11.66 1.68 12.32 1 13 C-0.32229189 10.35541621 -0.09677194 8.32238699 -0.0625 5.375 C-0.05347656 4.37210938 -0.04445313 3.36921875 -0.03515625 2.3359375 C-0.02355469 1.56507813 -0.01195312 0.79421875 0 0 Z " fill="#C4DCFD" transform="translate(345,510)"/>
<path d="M0 0 C0.33 0 0.66 0 1 0 C1.36504603 1.58086048 1.71660506 3.16483907 2.0625 4.75 C2.25972656 5.63171875 2.45695313 6.5134375 2.66015625 7.421875 C2.99825872 9.98679028 2.81158635 11.57091639 2 14 C1.01 13.67 0.02 13.34 -1 13 C-1.33 13.66 -1.66 14.32 -2 15 C-2.22577402 9.5814234 -1.46670113 5.22512279 0 0 Z " fill="#3481FD" transform="translate(825,175)"/>
<path d="M0 0 C-0.33 0.66 -0.66 1.32 -1 2 C-8.1070072 3.57933493 -15.7669813 3.1118508 -23 3 C-23 2.67 -23 2.34 -23 2 C-15.27111181 0.04596958 -7.94957992 -0.22428282 0 0 Z " fill="#347CFB" transform="translate(771,968)"/>
<path d="M0 0 C0.66 0.33 1.32 0.66 2 1 C0.89718873 2.27200971 -0.20730769 3.54255853 -1.3125 4.8125 C-1.92738281 5.52019531 -2.54226563 6.22789062 -3.17578125 6.95703125 C-4.73334335 8.70136739 -6.32658875 10.36778041 -8 12 C-8.99 11.67 -9.98 11.34 -11 11 C-7.37 7.37 -3.74 3.74 0 0 Z " fill="#2F7BFD" transform="translate(320,481)"/>
<path d="M0 0 C0.80566406 0.04833984 1.61132812 0.09667969 2.44140625 0.14648438 C3.28316406 0.20255859 4.12492188 0.25863281 4.9921875 0.31640625 C6.26642578 0.3947168 6.26642578 0.3947168 7.56640625 0.47460938 C9.66697874 0.60442003 11.76712941 0.74102365 13.8671875 0.87890625 C13.8671875 1.20890625 13.8671875 1.53890625 13.8671875 1.87890625 C6.2771875 2.20890625 -1.3128125 2.53890625 -9.1328125 2.87890625 C-5.56707088 0.50174517 -4.17301095 -0.26448661 0 0 Z " fill="#5593FA" transform="translate(532.1328125,984.12109375)"/>
<path d="M0 0 C3 1 3 1 4.38671875 3.21484375 C4.81597656 4.11332031 5.24523437 5.01179687 5.6875 5.9375 C6.12449219 6.83339844 6.56148437 7.72929688 7.01171875 8.65234375 C8 11 8 11 8 13 C5 12 5 12 3.61328125 9.78515625 C3.18402344 8.88667969 2.75476563 7.98820313 2.3125 7.0625 C1.87550781 6.16660156 1.43851563 5.27070312 0.98828125 4.34765625 C0 2 0 2 0 0 Z " fill="#3D83FD" transform="translate(740,779)"/>
<path d="M0 0 C5.61 0.33 11.22 0.66 17 1 C17 1.33 17 1.66 17 2 C6.605 2.495 6.605 2.495 -4 3 C-2.68 2.67 -1.36 2.34 0 2 C0 1.34 0 0.68 0 0 Z " fill="#5B98FC" transform="translate(470,988)"/>
<path d="M0 0 C0.73605469 0.05671875 1.47210937 0.1134375 2.23046875 0.171875 C4.02952468 0.31206118 5.82741939 0.46701786 7.625 0.625 C7.625 0.955 7.625 1.285 7.625 1.625 C-3.265 2.12 -3.265 2.12 -14.375 2.625 C-14.375 2.295 -14.375 1.965 -14.375 1.625 C-9.29127302 -0.47584617 -5.34122593 -0.48293182 0 0 Z " fill="#5593FC" transform="translate(679.375,974.375)"/>
<path d="M0 0 C-1.4375 2 -1.4375 2 -4 4 C-7.02824418 4.35442445 -9.96485939 4.23347235 -13 4 C-10.56272708 2.37515139 -8.62713877 1.34310925 -5.9375 0.3125 C-5.24527344 0.04050781 -4.55304687 -0.23148437 -3.83984375 -0.51171875 C-2 -1 -2 -1 0 0 Z " fill="#478BFD" transform="translate(593,495)"/>
<path d="M0 0 C0.66 0 1.32 0 2 0 C1.34 4.95 0.68 9.9 0 15 C-2.51883375 9.9623325 -1.94364626 8.40451946 -1 3 C-0.67 2.01 -0.34 1.02 0 0 Z " fill="#3B88FC" transform="translate(826,290)"/>
<path d="M0 0 C0.5775 0.226875 1.155 0.45375 1.75 0.6875 C0.76 1.0175 -0.23 1.3475 -1.25 1.6875 C-2.68948118 3.31632397 -2.68948118 3.31632397 -3.9375 5.25 C-4.37449219 5.89066406 -4.81148437 6.53132813 -5.26171875 7.19140625 C-5.58785156 7.68511719 -5.91398438 8.17882812 -6.25 8.6875 C-6.91 8.3575 -7.57 8.0275 -8.25 7.6875 C-6.86345583 3.41232214 -5.12511737 -0.71182186 0 0 Z " fill="#307DFD" transform="translate(669.25,257.3125)"/>
<path d="M0 0 C2.28062828 3.42094242 2.21925007 4.68187222 2.125 8.6875 C2.10695313 9.68136719 2.08890625 10.67523437 2.0703125 11.69921875 C2.03550781 12.83810547 2.03550781 12.83810547 2 14 C-0.55902083 9.05952306 -1.41067779 5.48596918 0 0 Z " fill="#F2F6FE" transform="translate(992,595)"/>
<path d="M0 0 C0.91007813 0.10183594 1.82015625 0.20367188 2.7578125 0.30859375 C3.45648437 0.39238281 4.15515625 0.47617187 4.875 0.5625 C4.875 0.8925 4.875 1.2225 4.875 1.5625 C-3.045 2.0575 -3.045 2.0575 -11.125 2.5625 C-4.875 -0.5625 -4.875 -0.5625 0 0 Z " fill="#3C83FC" transform="translate(704.125,972.4375)"/>
<path d="M0 0 C-3.83325617 2.70582788 -6.32538149 3.32613618 -11 3 C-11.33 3.66 -11.66 4.32 -12 5 C-12.66 4.34 -13.32 3.68 -14 3 C-12.42274653 2.29866401 -10.83788667 1.614417 -9.25 0.9375 C-7.92742188 0.36322266 -7.92742188 0.36322266 -6.578125 -0.22265625 C-3.84743691 -1.04600008 -2.63098653 -0.9773992 0 0 Z " fill="#4489FD" transform="translate(816,682)"/>
<path d="M0 0 C0.66 0 1.32 0 2 0 C4.42857143 7.42857143 4.42857143 7.42857143 3 11 C3 10.01 3 9.02 3 8 C2.34 8 1.68 8 1 8 C0.67 5.36 0.34 2.72 0 0 Z " fill="#438AFD" transform="translate(735,761)"/>
<path d="M0 0 C-2 3 -2 3 -5 3.8125 C-5.99 3.874375 -6.98 3.93625 -8 4 C-8.66 3.34 -9.32 2.68 -10 2 C-8.71211992 1.46987262 -7.41953322 0.9511671 -6.125 0.4375 C-5.40570312 0.14746094 -4.68640625 -0.14257812 -3.9453125 -0.44140625 C-2 -1 -2 -1 0 0 Z " fill="#4C8EFC" transform="translate(542,513)"/>
<path d="M0 0 C-1.5625 2.0625 -1.5625 2.0625 -4 4 C-7.75 3.75 -7.75 3.75 -11 3 C-3.71428571 -1.85714286 -3.71428571 -1.85714286 0 0 Z " fill="#5695FD" transform="translate(707,503)"/>
<path d="M0 0 C0 0.66 0 1.32 0 2 C-1.53125 3.2890625 -1.53125 3.2890625 -3.5 4.625 C-4.1496875 5.07101562 -4.799375 5.51703125 -5.46875 5.9765625 C-5.9740625 6.31429688 -6.479375 6.65203125 -7 7 C-7 6.01 -7 5.02 -7 4 C-2.65714286 0 -2.65714286 0 0 0 Z " fill="#2B7BFC" transform="translate(436,403)"/>
<path d="M0 0 C3.36720387 1.39332574 4.9859524 2.9789286 7 6 C3.75728494 5.4409112 2.06942576 4.5867822 0 2 C0 1.34 0 0.68 0 0 Z " fill="#377EFC" transform="translate(321,962)"/>
<path d="M0 0 C0.66 0 1.32 0 2 0 C2.33 2.64 2.66 5.28 3 8 C2.34 8 1.68 8 1 8 C0.67 5.36 0.34 2.72 0 0 Z " fill="#297AFD" transform="translate(960,481)"/>
<path d="M0 0 C-1.04874998 2.62187494 -1.64931313 3.79371361 -4.125 5.25 C-4.74375 5.4975 -5.3625 5.745 -6 6 C-6 5.01 -6 4.02 -6 3 C-2.66666667 0 -2.66666667 0 0 0 Z " fill="#2E7CFC" transform="translate(840,337)"/>
</svg>
